<?xml version="1.0" encoding="UTF-8"?>
<svg width="512px" height="512px" viewBox="0 0 512 512" version="1.1" xmlns="http://www.w3.org/2000/svg" xmlns:xlink="http://www.w3.org/1999/xlink">
    <!-- Generator: Sketch 54.1 (76490) - https://sketchapp.com -->
    <title>cyprusjs-logo-color</title>
    <desc>Created with Sketch.</desc>
    <defs>
        <path d="M272,9.23760431 L461.702503,118.762396 C471.603338,124.478645 477.702503,135.04271 477.702503,146.475209 L477.702503,365.524791 C477.702503,376.95729 471.603338,387.521355 461.702503,393.237604 L272,502.762396 C262.099166,508.478645 249.900834,508.478645 240,502.762396 L50.2974966,393.237604 C40.3966622,387.521355 34.2974966,376.95729 34.2974966,365.524791 L34.2974966,146.475209 C34.2974966,135.04271 40.3966622,124.478645 50.2974966,118.762396 L240,9.23760431 C249.900834,3.52135487 262.099166,3.52135487 272,9.23760431 Z" id="path-1"></path>
        <linearGradient x1="24.420929%" y1="15.1184082%" x2="75.1876831%" y2="85.2684021%" id="linearGradient-3">
            <stop stop-color="#01C1C3" offset="0%"></stop>
            <stop stop-color="#002B4D" offset="100%"></stop>
        </linearGradient>
        <linearGradient x1="50%" y1="0%" x2="50%" y2="100%" id="linearGradient-4">
            <stop stop-color="#00FFFF" offset="0%"></stop>
            <stop stop-color="#004C5E" offset="100%"></stop>
        </linearGradient>
        <linearGradient x1="0%" y1="33.1862903%" x2="100%" y2="66.8137097%" id="linearGradient-5">
            <stop stop-color="#004C5E" offset="0%"></stop>
            <stop stop-color="#00FFFF" offset="100%"></stop>
        </linearGradient>
        <linearGradient x1="50%" y1="0%" x2="50%" y2="100%" id="linearGradient-6">
            <stop stop-color="#00FFFF" offset="0%"></stop>
            <stop stop-color="#004C5E" offset="100%"></stop>
        </linearGradient>
        <linearGradient x1="39.7577421%" y1="87.7686367%" x2="100%" y2="50%" id="linearGradient-7">
            <stop stop-color="#F5A623" offset="0%"></stop>
            <stop stop-color="#F8E71C" offset="100%"></stop>
        </linearGradient>
    </defs>
    <g id="cyprusjs-logo-color" stroke="none" stroke-width="1" fill="none" fill-rule="evenodd">
        <g id="Group">
            <mask id="mask-2" fill="white">
                <use xlink:href="#path-1"></use>
            </mask>
            <g id="Mask"></g>
            <path d="M272,9.23760431 L461.702503,118.762396 C471.603338,124.478645 477.702503,135.04271 477.702503,146.475209 L477.702503,365.524791 C477.702503,376.95729 471.603338,387.521355 461.702503,393.237604 L272,502.762396 C262.099166,508.478645 249.900834,508.478645 240,502.762396 L50.2974966,393.237604 C40.3966622,387.521355 34.2974966,376.95729 34.2974966,365.524791 L34.2974966,146.475209 C34.2974966,135.04271 40.3966622,124.478645 50.2974966,118.762396 L240,9.23760431 C249.900834,3.52135487 262.099166,3.52135487 272,9.23760431 Z" id="Background" fill="url(#linearGradient-3)" mask="url(#mask-2)"></path>
            <g id="Lines" mask="url(#mask-2)" fill-rule="nonzero">
                <g transform="translate(34.634176, 2.000000)" id="Path">
                    <polygon fill="url(#linearGradient-4)" points="-8.52651283e-13 127.366776 442.2326 382.365824 443.231648 380.633224 0.999047626 125.634176"></polygon>
                    <polygon fill="url(#linearGradient-5)" transform="translate(221.365824, 254.000000) scale(-1, 1) translate(-221.365824, -254.000000) " points="0.865874336 127.866054 440.865874 381.866054 441.865774 380.133946 1.8657736 126.133946"></polygon>
                    <polygon fill="url(#linearGradient-6)" points="220.365824 0 220.365824 508 222.365824 508 222.365824 0"></polygon>
                </g>
            </g>
            <path d="M62.621122,507.20575 C62.9323292,505.347208 63.1482538,503.911257 63.268896,502.897896 C64.1419555,495.539443 64.7310908,489.275753 64.842363,488.0959 L65.0224386,486.164202 L74.2678592,477.606026 L80.1498371,470.154562 L72.3328714,467.662278 L61.15301,480.805244 L51.1305996,488.287329 L44.4960452,502.649038 C42.4127151,507.158787 44.3797168,512.503534 48.8894664,514.586864 C49.3591767,514.803852 49.8467336,514.979907 50.3467127,515.11307 L50.3467127,515.11307 C55.6140153,516.515948 61.021265,513.383213 62.424143,508.11591 C62.5040763,507.81579 62.5697987,507.512063 62.6210908,507.205744 Z M124.609802,458.979249 C134.681937,454.327788 142.941247,447.393468 149.156713,438.369599 L149.163507,438.359797 L149.151828,438.351856 C149.151828,438.351856 146.458406,436.927155 142.079993,436.456983 C137.90893,436.007743 131.16826,436.281466 122.738601,440.13635 L122.564697,440.216633 C112.604623,444.814695 102.472368,453.288604 92.4484773,465.403855 C93.1154387,465.449257 108.53783,466.398866 124.605343,458.981308 L124.599504,459.000669 L124.609802,458.979249 Z M161.304388,430.958886 C163.274885,430.049208 164.600287,428.614916 165.037115,426.922834 C165.394389,425.532942 165.242434,423.972131 164.569213,422.145323 C163.4657,419.153398 161.361326,416.642605 161.158906,416.40292 C160.124055,416.497209 159.167437,416.728888 158.36985,417.076273 L158.191837,417.154982 C154.242981,418.977969 153.177211,423.248953 153.872226,426.674106 C154.268685,428.620005 155.092099,430.030464 156.323083,430.864113 C157.555947,431.700365 159.560389,431.746652 161.290275,430.948052 L161.304388,430.958886 Z M79.6171133,458.439967 C103.10584,443.310965 108.170452,430.123575 108.283588,421.725187 C108.403987,412.768534 102.931086,407.061302 102.875743,407.003873 L102.858177,406.987781 L102.835104,406.991518 C102.82767,406.99495 100.9908,407.35026 98.6088825,408.436042 C91.7428162,411.605757 76.3553582,422.725136 79.5984454,458.427841 L79.6011439,458.450797 L79.6215185,458.424104 L79.6171133,458.439967 Z M127.580815,429.273689 C138.868276,424.061143 146.287996,418.467141 149.632819,412.643271 C151.555764,409.296901 151.685196,406.536033 151.45579,404.807282 C151.240115,403.187494 150.62983,402.041523 150.502361,401.817201 C150.121375,401.840477 144.262297,402.259628 137.167654,405.175395 C136.568136,405.421641 135.97048,405.678897 135.353085,405.962221 C126.628032,409.990137 115.077943,418.49303 109.258564,436.287481 L109.253128,436.30525 L109.27079,436.298792 C116.168916,434.046865 122.341207,431.689159 127.592678,429.264821 L127.580815,429.273689 Z M181.383126,403.849436 C193.104923,398.438075 207.033368,387.992062 210.975466,374.906335 L210.978673,374.891401 L210.944141,374.898934 C210.822821,374.92467 198.242182,377.629737 185.798031,383.039909 C185.055615,383.362464 184.313255,383.693402 183.569775,384.036629 C172.579466,389.110299 165.462388,394.787304 162.412041,400.909363 C161.347499,403.047215 161.108408,404.689641 161.681843,405.926693 C162.160377,406.960343 163.483177,407.701778 165.222771,407.907729 C168.903023,408.346212 174.030831,407.119171 180.467798,404.261906 L181.385383,403.871938 L181.383126,403.849436 Z M207.852706,368.589525 C209.099872,368.013771 209.838399,366.874677 209.879154,365.467523 C209.911488,364.302205 209.55363,362.964781 208.755227,361.26116 C207.421548,358.414437 205.423928,355.949165 205.40437,355.924469 L205.384812,355.899774 C204.738886,355.875706 204.118441,355.989762 203.529672,356.240957 L203.525787,356.242751 C202.027374,356.934492 201.524323,358.347095 201.347747,359.417872 C201.11376,360.846782 201.290456,362.526396 201.845324,364.143842 C202.417681,365.809424 203.215876,367.055982 204.285742,367.954165 C205.143387,368.663659 206.653111,369.128328 207.844589,368.578283 L207.852706,368.589525 Z M117.609625,406.890249 C119.580121,405.98057 120.905524,404.546278 121.342351,402.854196 C121.699625,401.464305 121.54767,399.903494 120.874449,398.076686 C119.770936,395.08476 117.666562,392.573968 117.464142,392.334282 C116.429291,392.428571 115.472673,392.660251 114.675086,393.007635 L114.497073,393.086345 C110.548217,394.909332 109.482448,399.180316 110.177462,402.605468 C110.573921,404.551368 111.397335,405.961826 112.62832,406.795476 C113.870579,407.644741 115.881352,407.670755 117.595511,406.879414 L117.609625,406.890249 Z M158.574055,384.729881 C181.606579,373.113021 189.534229,361.509143 192.127577,353.81884 C193.587887,349.489665 193.538111,345.889587 193.23798,343.632308 C192.953079,341.501199 192.371743,340.037964 192.252861,339.757181 L192.212758,339.75971 C192.208266,339.761784 189.471394,340.080423 185.838304,341.674164 L185.283396,341.923233 C177.336438,345.591942 163.301797,356.029748 158.576307,384.716409 L158.585925,384.729729 L158.574055,384.729881 Z M133.857374,394.600303 C151.162442,383.121046 156.709012,370.721144 158.31281,362.337393 C159.995036,353.549932 157.75753,347.122363 157.64965,346.824576 C157.607917,346.831169 154.867431,347.366736 151.277095,348.917401 C151.015973,349.028896 150.747181,349.149364 150.4758,349.274646 C150.201387,349.401329 149.924387,349.532826 149.644264,349.671197 C140.126064,354.316909 125.418358,366.327804 133.85506,394.588699 L133.839899,394.595698 L133.857374,394.600303 Z M224.435182,342.053458 C230.661584,339.179043 236.232139,335.739941 240.989991,331.832059 C249.315497,324.992247 251.106479,319.591405 251.141412,316.264478 C251.162082,314.375443 250.646212,312.965422 250.20869,312.115611 C249.79211,311.303119 249.291029,310.733851 249.205101,310.639786 L249.147814,310.646353 C249.118387,310.652709 241.336082,312.020737 232.144824,316.095805 C231.782242,316.255962 231.418616,316.420216 231.050945,316.589951 C226.658397,318.617768 222.60793,320.991874 219.011248,323.64805 C205.261931,333.803196 204.845452,348.368166 204.844208,348.513317 L204.845512,348.528979 L204.867957,348.524039 C204.967786,348.496025 213.881219,346.929304 224.446143,342.052012 L224.435182,342.053458 Z M169.050984,347.116721 C171.051883,346.193007 172.390731,344.768748 172.822865,343.104896 C173.178847,341.737382 173.014368,340.155681 172.319818,338.273689 C171.217653,335.273964 169.121731,332.781761 168.927101,332.552971 C167.889342,332.647244 166.930108,332.879388 166.130416,333.22767 L165.951934,333.306584 C162.000591,335.130719 160.930109,339.419004 161.624075,342.857907 C162.006354,344.749986 162.838848,346.1417 164.10177,346.996912 C165.382623,347.868223 167.32665,347.911018 169.045311,347.117599 L169.050984,347.116721 Z M201.113037,329.201314 C201.23355,329.103986 208.607898,322.956981 214.008842,313.776523 C219.008947,305.281422 223.297897,292.358055 215.335639,279.030536 L215.33073,279.023738 L215.305717,279.028035 C215.30421,279.02873 214.4058,279.216891 213.229592,279.707318 C213.067513,279.774891 212.896853,279.85005 212.720625,279.931406 C210.226324,281.082899 205.577687,284.073666 202.46147,291.164319 C198.505977,300.204986 198.058664,312.991748 201.118335,329.216995 L201.113037,329.201314 Z M178.407758,336.610784 C178.448089,336.565854 183.037791,331.503658 186.596315,322.158658 C189.910772,313.450805 193.037003,299.083447 189.092919,280.083184 C189.087544,280.083911 186.830808,280.061 184.153735,281.103919 C183.9981,281.163489 183.84574,281.230318 183.693804,281.300459 C183.472538,281.402606 183.248646,281.514736 183.019379,281.627593 C179.527494,283.358898 175.062712,287.177661 173.230486,295.729224 C171.127058,305.553162 172.84752,319.30558 178.349357,336.606171 L178.365003,336.655079 L178.399757,336.621494 L178.407758,336.610784 Z M234.616475,311.002988 C241.417104,307.863481 241.134355,303.173872 240.69695,301.302126 C239.976966,298.226308 237.798914,295.840196 237.778125,295.816614 L237.75393,295.790919 C236.458993,296.029289 235.187422,296.417236 234.057815,296.918443 L233.824063,297.024511 C228.465095,299.498475 226.160146,304.118213 226.254631,307.598918 C226.273238,308.288926 226.482755,310.616097 228.420577,311.614536 C229.962641,312.395688 232.03644,312.194059 234.617886,311.002336 L234.616475,311.002988 Z M237.454641,286.004848 C241.507065,284.134049 247.548103,281.050616 253.305384,276.987658 C259.014274,272.957753 259.148307,266.377372 258.255592,261.568977 C257.282137,256.331864 254.939431,251.98932 254.91548,251.94503 L254.897416,251.953369 C235.280325,261.705895 229.5896,271.262162 228.269856,277.559714 C226.907656,284.062547 229.940993,288.761144 230.136287,289.056634 L230.150802,289.051718 C230.180909,289.037819 233.169963,287.979296 237.460234,285.998695 L237.454641,286.004848 Z M203.700196,276.169166 C203.706282,276.127209 204.198101,272.561951 204.223633,268.404094 C204.252038,264.040276 203.999426,259.61757 201.987375,256.830984 C200.044706,254.140487 196.66782,248.13685 194.829401,244.798558 C192.495661,240.564331 190.582344,236.901171 190.418713,236.590575 L190.402861,236.605011 C190.010537,237.004997 180.809707,246.574828 188.014737,256.553422 C195.231331,266.548032 203.601331,276.074232 203.684214,276.169426 L203.69633,276.183406 L203.711489,276.176408 L203.700196,276.169166 Z M217.529419,269.870359 C217.658656,269.810697 217.778639,269.74106 217.8938,269.664746 C221.13958,267.466472 225.772256,262.120547 230.283587,255.365029 C235.292208,247.8635 238.63094,240.762464 239.683479,235.370407 C240.642654,230.454191 238.845968,224.258305 234.344689,216.95319 C231.149669,211.769693 227.653302,207.836542 227.302999,207.447986 C226.537005,207.557635 225.798515,207.779244 225.083098,208.109516 C222.397095,209.401151 220.265756,211.799051 218.043435,215.943196 C216.311979,219.173338 214.741711,223.203448 213.375944,227.917369 C211.019398,236.051962 209.997194,243.602611 209.98711,243.676718 L209.976452,243.752871 C210.026821,244.575507 210.481368,251.659894 211.603141,258.242148 C212.315636,262.422255 213.08635,265.316448 214.030468,267.354152 C214.567126,268.51503 215.001481,269.238755 215.754178,269.730038 C216.066853,269.932951 216.478339,270.065316 216.778554,270.054941 C217.051811,270.035641 217.296137,269.976273 217.542302,269.862631 L217.529419,269.870359 Z" id="Branch---Right" fill="#011D33" fill-rule="nonzero" mask="url(#mask-2)" transform="translate(151.164655, 361.447984) scale(-1, 1) rotate(2.000000) translate(-151.164655, -361.447984) "></path>
            <path d="M269.265484,290.415646 C269.576691,288.557104 269.792616,287.121153 269.913258,286.107793 C270.786318,278.749339 271.375453,272.485649 271.486725,271.305796 L271.666801,269.374099 L280.912221,260.815923 L286.794199,253.364458 L278.977234,250.872174 L267.797372,264.01514 L257.774962,271.497226 L251.140407,285.858934 C249.057077,290.368684 251.024079,295.713431 255.533829,297.796761 C256.003539,298.013749 256.491096,298.189804 256.991075,298.322967 L256.991075,298.322967 C262.258378,299.725845 267.665627,296.59311 269.068505,291.325807 C269.148439,291.025686 269.214161,290.721959 269.265453,290.415641 Z M331.254164,242.189146 C341.326299,237.537684 349.585609,230.603364 355.801075,221.579496 L355.80787,221.569693 L355.796191,221.561753 C355.796191,221.561753 353.102769,220.137052 348.724355,219.666879 C344.553292,219.21764 337.812622,219.491363 329.382963,223.346247 L329.209059,223.426529 C319.248985,228.024592 309.11673,236.498501 299.09284,248.613751 C299.759801,248.659154 315.182193,249.608762 331.249705,242.191204 L331.243866,242.210565 L331.254164,242.189146 Z M367.948751,214.168783 C369.919247,213.259104 371.24465,211.824812 371.681477,210.13273 C372.038751,208.742839 371.886796,207.182028 371.213575,205.35522 C370.110062,202.363294 368.005688,199.852502 367.803268,199.612816 C366.768417,199.707105 365.811799,199.938785 365.014213,200.286169 L364.8362,200.364879 C360.887343,202.187866 359.821574,206.45885 360.516588,209.884002 C360.913047,211.829902 361.736461,213.24036 362.967446,214.07401 C364.200309,214.910262 366.204752,214.956549 367.934637,214.157948 L367.948751,214.168783 Z M286.261476,241.649864 C309.750202,226.520862 314.814815,213.333471 314.92795,204.935083 C315.048349,195.97843 309.575449,190.271198 309.520106,190.21377 L309.502539,190.197677 L309.479466,190.201414 C309.472032,190.204846 307.635162,190.560157 305.253245,191.645938 C298.387178,194.815654 282.99972,205.935033 286.242808,241.637737 L286.245506,241.660694 L286.265881,241.634001 L286.261476,241.649864 Z M334.225177,212.483585 C345.512638,207.27104 352.932358,201.677037 356.277181,195.853167 C358.200126,192.506798 358.329559,189.74593 358.100152,188.017178 C357.884477,186.39739 357.274192,185.251419 357.146724,185.027097 C356.765738,185.050374 350.906659,185.469524 343.812016,188.385291 C343.212499,188.631537 342.614842,188.888793 341.997447,189.172118 C333.272394,193.200033 321.722305,201.702927 315.902926,219.497377 L315.897491,219.515147 L315.915153,219.508689 C322.813278,217.256762 328.985569,214.899056 334.23704,212.474717 L334.225177,212.483585 Z M388.027488,187.059332 C399.749285,181.647971 413.677731,171.201959 417.619829,158.116231 L417.623036,158.101297 L417.588503,158.10883 C417.467184,158.134566 404.886544,160.839633 392.442393,166.249805 C391.699977,166.572361 390.957617,166.903299 390.214137,167.246526 C379.223828,172.320196 372.106751,177.9972 369.056403,184.11926 C367.991861,186.257112 367.75277,187.899537 368.326205,189.136589 C368.804739,190.17024 370.12754,190.911675 371.867133,191.117626 C375.547385,191.556109 380.675193,190.329067 387.112161,187.471802 L388.029745,187.081834 L388.027488,187.059332 Z M414.497068,151.799422 C415.744234,151.223668 416.482761,150.084573 416.523517,148.67742 C416.555851,147.512101 416.197992,146.174678 415.39959,144.471057 C414.065911,141.624333 412.068291,139.159062 412.048732,139.134366 L412.029174,139.10967 C411.383248,139.085602 410.762803,139.199659 410.174035,139.450854 L410.170149,139.452648 C408.671737,140.144389 408.168685,141.556991 407.99211,142.627769 C407.758122,144.056678 407.934818,145.736292 408.489686,147.353739 C409.062043,149.019321 409.860238,150.265879 410.930104,151.164062 C411.787749,151.873555 413.297473,152.338225 414.488951,151.78818 L414.497068,151.799422 Z M324.253987,190.100146 C326.224483,189.190467 327.549886,187.756175 327.986713,186.064093 C328.343987,184.674202 328.192032,183.11339 327.518811,181.286582 C326.415298,178.294657 324.310925,175.783864 324.108504,175.544179 C323.073653,175.638468 322.117035,175.870147 321.319449,176.217532 L321.141436,176.296241 C317.19258,178.119228 316.12681,182.390212 316.821824,185.815365 C317.218283,187.761265 318.041697,189.171723 319.272682,190.005372 C320.514942,190.854637 322.525714,190.880651 324.239873,190.089311 L324.253987,190.100146 Z M365.218417,167.939777 C388.250941,156.322918 396.178591,144.719039 398.771939,137.028737 C400.232249,132.699561 400.182473,129.099484 399.882342,126.842205 C399.597441,124.711095 399.016105,123.247861 398.897223,122.967077 L398.85712,122.969606 C398.852628,122.97168 396.115756,123.290319 392.482667,124.884061 L391.927759,125.13313 C383.9808,128.801839 369.946159,139.239644 365.22067,167.926306 L365.230287,167.939626 L365.218417,167.939777 Z M340.501736,177.8102 C357.806805,166.330943 363.353374,153.931041 364.957172,145.54729 C366.639398,136.759828 364.401892,130.33226 364.294012,130.034472 C364.25228,130.041066 361.511793,130.576633 357.921457,132.127298 C357.660336,132.238793 357.391543,132.35926 357.120162,132.484543 C356.84575,132.611225 356.56875,132.742723 356.288626,132.881093 C346.770427,137.526806 332.062721,149.537701 340.499422,177.798596 L340.484261,177.805595 L340.501736,177.8102 Z M431.079544,125.263355 C437.305946,122.38894 442.876501,118.949838 447.634353,115.041955 C455.959859,108.202144 457.750841,102.801302 457.785774,99.4743749 C457.806444,97.5853393 457.290575,96.1753189 456.853052,95.3255077 C456.436472,94.5130154 455.935391,93.9437474 455.849463,93.8496826 L455.792176,93.8562499 C455.76275,93.8626058 447.980444,95.2306332 438.789186,99.305702 C438.426604,99.4658589 438.062978,99.6301122 437.695307,99.7998475 C433.30276,101.827664 429.252293,104.201771 425.655611,106.857947 C411.906293,117.013093 411.489814,131.578063 411.48857,131.723213 L411.489875,131.738876 L411.51232,131.733936 C411.612148,131.705922 420.525581,130.1392 431.090505,125.261909 L431.079544,125.263355 Z M375.695346,130.326618 C377.696246,129.402904 379.035094,127.978645 379.467227,126.314793 C379.823209,124.947278 379.658731,123.365577 378.96418,121.483586 C377.862015,118.483861 375.766094,115.991658 375.571463,115.762867 C374.533704,115.857141 373.57447,116.089284 372.774778,116.437567 L372.596296,116.516481 C368.644953,118.340616 367.574471,122.6289 368.268437,126.067803 C368.650716,127.959882 369.48321,129.351596 370.746132,130.206808 C372.026986,131.07812 373.971012,131.120914 375.689673,130.327496 L375.695346,130.326618 Z M407.7574,112.41121 C407.877913,112.313883 415.25226,106.166878 420.653204,96.98642 C425.653309,88.4913189 429.942259,75.5679516 421.980001,62.2404321 L421.975093,62.2336345 L421.950079,62.2379311 C421.948573,62.2386265 421.050163,62.4267873 419.873955,62.9172142 C419.711875,62.9847873 419.541215,63.059947 419.364987,63.1413024 C416.870686,64.2927951 412.222049,67.2835621 409.105832,74.3742154 C405.150339,83.4148825 404.703027,96.2016444 407.762697,112.426892 L407.7574,112.41121 Z M385.05212,119.82068 C385.092451,119.775751 389.682153,114.713554 393.240677,105.368555 C396.555134,96.6607014 399.681366,82.2933438 395.737282,63.2930803 C395.731906,63.2938077 393.47517,63.2708961 390.798097,64.3138153 C390.642462,64.3733855 390.490102,64.4402144 390.338166,64.5103555 C390.1169,64.6125027 389.893008,64.7246327 389.663741,64.83749 C386.171856,66.5687949 381.707074,70.3875573 379.874848,78.9391206 C377.77142,88.7630587 379.491882,102.515476 384.993719,119.816068 L385.009365,119.864976 L385.044119,119.831391 L385.05212,119.82068 Z M441.260838,94.2128841 C448.061466,91.0733779 447.778718,86.3837687 447.341312,84.512023 C446.621328,81.4362049 444.443276,79.0500923 444.422488,79.0265106 L444.398292,79.0008153 C443.103355,79.2391852 441.831784,79.6271328 440.702177,80.1283391 L440.468426,80.2344071 C435.109457,82.7083719 432.804509,87.3281095 432.898993,90.8088146 C432.9176,91.4988226 433.127118,93.8259933 435.064939,94.8244328 C436.607003,95.605585 438.680802,95.4039558 441.262248,94.2122329 L441.260838,94.2128841 Z M444.099003,69.2147447 C448.151427,67.3439455 454.192465,64.2605123 459.949746,60.1975549 C465.658636,56.1676499 465.79267,49.5872687 464.899954,44.7788731 C463.926499,39.5417609 461.583793,35.1992169 461.559842,35.1549265 L461.541778,35.1632658 C441.924687,44.9157915 436.233962,54.4720589 434.914218,60.7696104 C433.552019,67.2724434 436.585355,71.9710404 436.780649,72.2665301 L436.795164,72.2616146 C436.825271,72.2477157 439.814326,71.1891928 444.104596,69.2085919 L444.099003,69.2147447 Z M410.344558,59.3790623 C410.350644,59.3371053 410.842463,55.7718477 410.867995,51.6139908 C410.896401,47.2501728 410.643788,42.827467 408.631738,40.0408807 C406.689068,37.3503836 403.312183,31.3467463 401.473763,28.0084544 C399.140023,23.7742277 397.226706,20.1110678 397.063075,19.8004716 L397.047223,19.8149073 C396.6549,20.2148932 387.454069,29.7847244 394.659099,39.763319 C401.875693,49.7579285 410.245693,59.2841282 410.328576,59.3793225 L410.340692,59.3933029 L410.355851,59.3863049 L410.344558,59.3790623 Z M424.173782,53.0802557 C424.303018,53.0205937 424.423001,52.950957 424.538163,52.8746423 C427.783942,50.6763687 432.416618,45.3304441 436.92795,38.5749253 C441.93657,31.0733963 445.275302,23.9723601 446.327841,18.5803038 C447.287017,13.6640873 445.49033,7.46820135 440.989051,0.163086807 C437.794031,-5.02041077 434.297664,-8.95356185 433.947362,-9.34211741 C433.181367,-9.2324684 432.442877,-9.01085966 431.72746,-8.68058776 C429.041457,-7.38895253 426.910118,-4.99105205 424.687797,-0.846907025 C422.956341,2.38323426 421.386074,6.41334482 420.020306,11.1272653 C417.66376,19.2618583 416.641556,26.8125079 416.631472,26.886615 L416.620815,26.9627679 C416.671183,27.7854036 417.125731,34.8697907 418.247504,41.4520444 C418.959998,45.6321515 419.730712,48.5263441 420.67483,50.5640481 C421.211488,51.7249267 421.645844,52.4486512 422.398541,52.9399341 C422.711215,53.1428475 423.122701,53.2752131 423.422916,53.2648379 C423.696173,53.245538 423.940499,53.1861697 424.186664,53.0725277 L424.173782,53.0802557 Z" id="Branch---Right" fill="#011D33" fill-rule="nonzero" mask="url(#mask-2)" transform="translate(357.809017, 144.657880) scale(-1, 1) rotate(-178.000000) translate(-357.809017, -144.657880) "></path>
            <path d="M264,132.618802 L358.851252,187.381198 C363.801669,190.239323 366.851252,195.521355 366.851252,201.237604 L366.851252,310.762396 C366.851252,316.478645 363.801669,321.760677 358.851252,324.618802 L264,379.381198 C259.049583,382.239323 252.950417,382.239323 248,379.381198 L153.148748,324.618802 C148.198331,321.760677 145.148748,316.478645 145.148748,310.762396 L145.148748,201.237604 C145.148748,195.521355 148.198331,190.239323 153.148748,187.381198 L248,132.618802 C252.950417,129.760677 259.049583,129.760677 264,132.618802 Z" id="Mask" fill="url(#linearGradient-7)"></path>
            <path d="M265.25,130.453739 L360.101252,185.216134 C365.825172,188.520841 369.351252,194.628191 369.351252,201.237604 L369.351252,310.762396 C369.351252,317.371809 365.825172,323.479159 360.101252,326.783866 L265.25,381.546261 C259.52608,384.850968 252.47392,384.850968 246.75,381.546261 L151.898748,326.783866 C146.174828,323.479159 142.648748,317.371809 142.648748,310.762396 L142.648748,201.237604 C142.648748,194.628191 146.174828,188.520841 151.898748,185.216134 L246.75,130.453739 C252.47392,127.149032 259.52608,127.149032 265.25,130.453739 Z M262.75,134.783866 C258.573085,132.372323 253.426915,132.372323 249.25,134.783866 L154.398748,189.546261 C150.221834,191.957804 147.648748,196.414519 147.648748,201.237604 L147.648748,310.762396 C147.648748,315.585481 150.221834,320.042196 154.398748,322.453739 L249.25,377.216134 C253.426915,379.627677 258.573085,379.627677 262.75,377.216134 L357.601252,322.453739 C361.778166,320.042196 364.351252,315.585481 364.351252,310.762396 L364.351252,201.237604 C364.351252,196.414519 361.778166,191.957804 357.601252,189.546261 L262.75,134.783866 Z" id="Mask" fill-opacity="0.87" fill="#FFFFFF" fill-rule="nonzero"></path>
        </g>
    </g>
</svg>