<?xml version="1.0" encoding="UTF-8"?>
<svg width="56px" height="56px" viewBox="0 0 56 56" version="1.1" xmlns="http://www.w3.org/2000/svg" xmlns:xlink="http://www.w3.org/1999/xlink">
    <!-- Generator: Sketch 54.1 (76490) - https://sketchapp.com -->
    <title>keynote</title>
    <desc>Created with Sketch.</desc>
    <g id="keynote" stroke="none" stroke-width="1" fill="none" fill-rule="evenodd">
        <g id="Group-5" transform="translate(5.000000, 1.000000)">
            <path d="M2.09610107e-13,29.5576923 L46.4711538,29.5576923 L46.4711538,29.5576923 C46.4711538,30.8481269 45.4250499,31.8942308 44.1346154,31.8942308 L2.33653846,31.8942308 C1.0461039,31.8942308 2.0976814e-13,30.8481269 2.09610107e-13,29.5576923 L2.09610107e-13,29.5576923 Z" id="Rectangle" fill="#0D6A78"></path>
            <path d="M9.04759509,7.52884615 L37.3649557,7.52884615 C39.9274367,7.52884615 42.0751449,9.46609802 42.338483,12.0150119 L43.9134615,27.2596154 L2.29807692,27.2596154 L4.08116806,11.9503978 C4.37474714,9.42979414 6.50995221,7.52884615 9.04759509,7.52884615 Z" id="Rectangle" stroke="#0D6A78"></path>
            <path d="M31.4038462,51.6634615 L36.6057692,51.6634615 C37.8962038,51.6634615 38.9423077,52.7095654 38.9423077,54 L38.9423077,54 L7.52884615,54 L7.52884615,54 C7.52884615,52.7095654 8.57495006,51.6634615 9.86538462,51.6634615 L15.0673077,51.6634615 C18.9333009,51.6634615 22.0673077,48.5294548 22.0673077,44.6634615 L22.0673077,33.0631104 L24.4038462,33.0631104 L24.4038462,44.6634615 C24.4038462,48.5294548 27.5378529,51.6634615 31.4038462,51.6634615 Z" id="Path" fill="#0D6A78"></path>
            <path d="M14.8559754,3.11538462 L8.82692308,3.11538462 C7.96663337,3.11538462 7.26923077,3.81278722 7.26923077,4.67307692 L7.26923077,8 L5.97115385,8.5 L5.97115385,4.15384615 C5.97115385,2.86341159 7.01725775,1.81730769 8.30769231,1.81730769 L14.8559754,1.81730769 C15.0920848,0.776775099 16.0226373,0 17.1346154,0 L21.2884615,0 C22.5788961,0 23.625,1.0461039 23.625,2.33653846 L23.625,2.59615385 C23.625,3.88658841 22.5788961,4.93269231 21.2884615,4.93269231 L17.1346154,4.93269231 C16.0226373,4.93269231 15.0920848,4.15591721 14.8559754,3.11538462 Z" id="Path" fill="#0D6A78"></path>
        </g>
    </g>
</svg>