<?xml version="1.0" encoding="UTF-8"?>
<svg width="56px" height="56px" viewBox="0 0 56 56" version="1.1" xmlns="http://www.w3.org/2000/svg" xmlns:xlink="http://www.w3.org/1999/xlink">
    <!-- Generator: Sketch 54.1 (76490) - https://sketchapp.com -->
    <title>responsibility</title>
    <desc>Created with Sketch.</desc>
    <g id="responsibility" stroke="none" stroke-width="1" fill="none" fill-rule="evenodd">
        <g id="Group-7" transform="translate(1.000000, 1.592523)" stroke="#0D6A78">
            <g id="Globe" transform="translate(20.000000, 0.407477)">
                <circle id="Oval" cx="13.5041262" cy="13.4698661" r="13.4698661"></circle>
                <ellipse id="Oval" cx="13.4739923" cy="13.4698661" rx="7.53348214" ry="13.4698661"></ellipse>
                <path d="M12.1480994,16.03125 C13.7362667,13.5595891 14.7396173,9.92439383 14.7396173,5.87155842 C14.7396173,1.82370232 13.7387306,-1.8075392 12.1539504,-4.27901786" id="Path" transform="translate(13.443858, 5.876116) rotate(-270.000000) translate(-13.443858, -5.876116) "></path>
                <path d="M14.860153,10.4263393 C13.2023452,12.8983507 12.1480994,16.611177 12.1480994,20.7624045 C12.1480994,24.913489 13.2022725,28.6262026 14.8599817,31.0982143" id="Path" transform="translate(13.504126, 20.762277) rotate(-270.000000) translate(-13.504126, -20.762277) "></path>
                <path d="M13.4739923,26.9397321 L13.4739923,-1.19636444e-14" id="Path-4"></path>
                <path d="M0.0342601512,13.4397321 L26.9739923,13.4397321" id="Path-5"></path>
            </g>
            <g id="Hand" transform="translate(0.000000, 29.407477)">
                <path d="M8.89784609,11.573125 C9.01701227,11.0574306 9.31846525,10.6108333 9.80220502,10.2333333 C10.5278147,9.66708333 12.0603972,8.55666667 13.4000803,8.01520833 C14.7397634,7.47375 19.1250511,6.03270833 22.7098167,4.598125 C25.0996605,3.64173611 28.6281031,2.10902778 33.2951446,-1.0658141e-14 C33.8800161,0.500972222 34.1724518,1.08118056 34.1724518,1.740625 C34.1724518,2.72979167 33.1786142,5.47645833 30.7570714,6.580625 C28.3355286,7.68479167 26.3468129,7.72208333 25.2861784,8.69458333 C24.225544,9.66708333 24.2790231,11.7829167 26.1537055,12.7554167 C28.0283879,13.7279167 33.8078782,14.4760417 38.625993,13.0245833 C43.4441078,11.573125 47.4404753,10.0770833 51.6967472,8.48125 C52.6919194,8.10812325 53.8011448,8.61239069 54.1742716,9.60756285 C54.5377707,10.5770569 54.0690238,11.6603804 53.1134912,12.0591382 C49.7445991,13.4650291 46.8952005,14.7404545 44.5652964,15.8854167 C41.1553957,17.5611111 37.241848,19.4040972 32.8246532,21.414375 C27.6831666,22.0370139 23.3496933,22.3483333 19.8242334,22.3483333 C16.2987734,22.3483333 12.6566443,22.1518056 8.89784609,21.75875 L8.89784609,11.573125 Z" id="Path-2"></path>
                <path d="M38.3366439,11.0152145 C39.5692994,9.67111732 40.6703034,8.52125621 41.6396557,7.56563121 C43.0936843,6.13219371 44.6881736,4.64271454 45.6912712,3.92219371 C46.6943688,3.20167287 50.7029096,2.26906871 49.7974062,3.92219371 C48.8919027,5.57531871 46.8176621,7.35708954 44.9044831,9.05448537 C44.138908,9.40542287 42.1780885,10.0576104 41.6396557,10.2093812 C41.2807006,10.3105618 40.1796966,10.5791729 38.3366439,11.0152145 Z" id="Path-3"></path>
                <rect id="Rectangle" fill="#0D6A78" x="-1.30562228e-13" y="9.34708333" width="7.0317757" height="14.6133333" rx="1"></rect>
                <path d="M30.9495309,12.0325 C32.7837051,10.3865278 34.2683229,9.15190972 35.4033842,8.32864583 C37.1059762,7.09375 38.1571426,6.18083333 39.3338913,5.590625 C40.1183904,5.19715278 41.1108408,5.00027778 42.3112423,5 C39.777331,7.33876359 37.6496806,9.51421497 35.9282911,11.5263542 C35.2324383,11.7604167 33.1142907,12.0325 32.5362168,12.0325 C32.1508342,12.0325 31.6219389,12.0325 30.9495309,12.0325 Z" id="Path-3"></path>
            </g>
        </g>
    </g>
</svg>