<?xml version="1.0" encoding="UTF-8"?>
<svg width="56px" height="56px" viewBox="0 0 56 56" version="1.1" xmlns="http://www.w3.org/2000/svg" xmlns:xlink="http://www.w3.org/1999/xlink">
    <!-- Generator: Sketch 54.1 (76490) - https://sketchapp.com -->
    <title>sun</title>
    <desc>Created with Sketch.</desc>
    <g id="sun" stroke="none" stroke-width="1" fill="none" fill-rule="evenodd">
        <g id="Group" transform="translate(1.000000, 1.000000)" fill="#0D6A78" fill-rule="nonzero" stroke="#0D6A78" stroke-width="0.25">
            <path d="M26.1,39.6 L26.1,53.1 C26.1,53.5970563 26.5029437,54 27,54 C27.4970563,54 27.9,53.5970563 27.9,53.1 L27.9,39.6 C27.9,39.1029437 27.4970563,38.7 27,38.7 C26.5029437,38.7 26.1,39.1029437 26.1,39.6 Z" id="Path-2"></path>
            <path d="M21.0918515,38.9406647 L21.0918515,52.4406647 C21.0918515,52.937721 21.4947952,53.3406647 21.9918515,53.3406647 C22.4889078,53.3406647 22.8918515,52.937721 22.8918515,52.4406647 L22.8918515,38.9406647 C22.8918515,38.4436085 22.4889078,38.0406647 21.9918515,38.0406647 C21.4947952,38.0406647 21.0918515,38.4436085 21.0918515,38.9406647 Z" id="Path-2" transform="translate(21.991851, 45.690665) rotate(15.000000) translate(-21.991851, -45.690665) "></path>
            <path d="M16.425,37.0075916 L16.425,50.5075916 C16.425,51.0046478 16.8279437,51.4075916 17.325,51.4075916 C17.8220563,51.4075916 18.225,51.0046478 18.225,50.5075916 L18.225,37.0075916 C18.225,36.5105353 17.8220563,36.1075916 17.325,36.1075916 C16.8279437,36.1075916 16.425,36.5105353 16.425,37.0075916 Z" id="Path-2" transform="translate(17.325000, 43.757592) rotate(30.000000) translate(-17.325000, -43.757592) "></path>
            <path d="M12.4174838,33.9325162 L12.4174838,47.4325162 C12.4174838,47.9295725 12.8204275,48.3325162 13.3174838,48.3325162 C13.8145401,48.3325162 14.2174838,47.9295725 14.2174838,47.4325162 L14.2174838,33.9325162 C14.2174838,33.4354599 13.8145401,33.0325162 13.3174838,33.0325162 C12.8204275,33.0325162 12.4174838,33.4354599 12.4174838,33.9325162 Z" id="Path-2" transform="translate(13.317484, 40.682516) rotate(45.000000) translate(-13.317484, -40.682516) "></path>
            <path d="M9.34240844,29.925 L9.34240844,43.425 C9.34240844,43.9220563 9.74535216,44.325 10.2424084,44.325 C10.7394647,44.325 11.1424084,43.9220563 11.1424084,43.425 L11.1424084,29.925 C11.1424084,29.4279437 10.7394647,29.025 10.2424084,29.025 C9.74535216,29.025 9.34240844,29.4279437 9.34240844,29.925 Z" id="Path-2" transform="translate(10.242408, 36.675000) rotate(60.000000) translate(-10.242408, -36.675000) "></path>
            <path d="M7.40933526,25.2581485 L7.40933526,38.7581485 C7.40933526,39.2552048 7.81227899,39.6581485 8.30933526,39.6581485 C8.80639154,39.6581485 9.20933526,39.2552048 9.20933526,38.7581485 L9.20933526,25.2581485 C9.20933526,24.7610922 8.80639154,24.3581485 8.30933526,24.3581485 C7.81227899,24.3581485 7.40933526,24.7610922 7.40933526,25.2581485 Z" id="Path-2" transform="translate(8.309335, 32.008149) rotate(75.000000) translate(-8.309335, -32.008149) "></path>
            <path d="M6.75,20.25 L6.75,33.75 C6.75,34.2470563 7.15294373,34.65 7.65,34.65 C8.14705627,34.65 8.55,34.2470563 8.55,33.75 L8.55,20.25 C8.55,19.7529437 8.14705627,19.35 7.65,19.35 C7.15294373,19.35 6.75,19.7529437 6.75,20.25 Z" id="Path-2" transform="translate(7.650000, 27.000000) rotate(90.000000) translate(-7.650000, -27.000000) "></path>
            <path d="M7.40933526,15.2418515 L7.40933526,28.7418515 C7.40933526,29.2389078 7.81227899,29.6418515 8.30933526,29.6418515 C8.80639154,29.6418515 9.20933526,29.2389078 9.20933526,28.7418515 L9.20933526,15.2418515 C9.20933526,14.7447952 8.80639154,14.3418515 8.30933526,14.3418515 C7.81227899,14.3418515 7.40933526,14.7447952 7.40933526,15.2418515 Z" id="Path-2" transform="translate(8.309335, 21.991851) rotate(105.000000) translate(-8.309335, -21.991851) "></path>
            <path d="M9.34240844,10.575 L9.34240844,24.075 C9.34240844,24.5720563 9.74535216,24.975 10.2424084,24.975 C10.7394647,24.975 11.1424084,24.5720563 11.1424084,24.075 L11.1424084,10.575 C11.1424084,10.0779437 10.7394647,9.675 10.2424084,9.675 C9.74535216,9.675 9.34240844,10.0779437 9.34240844,10.575 Z" id="Path-2" transform="translate(10.242408, 17.325000) rotate(120.000000) translate(-10.242408, -17.325000) "></path>
            <path d="M12.4174838,6.56748378 L12.4174838,20.0674838 C12.4174838,20.5645401 12.8204275,20.9674838 13.3174838,20.9674838 C13.8145401,20.9674838 14.2174838,20.5645401 14.2174838,20.0674838 L14.2174838,6.56748378 C14.2174838,6.07042751 13.8145401,5.66748378 13.3174838,5.66748378 C12.8204275,5.66748378 12.4174838,6.07042751 12.4174838,6.56748378 Z" id="Path-2" transform="translate(13.317484, 13.317484) rotate(135.000000) translate(-13.317484, -13.317484) "></path>
            <path d="M16.425,3.49240844 L16.425,16.9924084 C16.425,17.4894647 16.8279437,17.8924084 17.325,17.8924084 C17.8220563,17.8924084 18.225,17.4894647 18.225,16.9924084 L18.225,3.49240844 C18.225,2.99535216 17.8220563,2.59240844 17.325,2.59240844 C16.8279437,2.59240844 16.425,2.99535216 16.425,3.49240844 Z" id="Path-2" transform="translate(17.325000, 10.242408) rotate(150.000000) translate(-17.325000, -10.242408) "></path>
            <path d="M21.0918515,1.55933526 L21.0918515,15.0593353 C21.0918515,15.5563915 21.4947952,15.9593353 21.9918515,15.9593353 C22.4889078,15.9593353 22.8918515,15.5563915 22.8918515,15.0593353 L22.8918515,1.55933526 C22.8918515,1.06227899 22.4889078,0.659335261 21.9918515,0.659335261 C21.4947952,0.659335261 21.0918515,1.06227899 21.0918515,1.55933526 Z" id="Path-2" transform="translate(21.991851, 8.309335) rotate(165.000000) translate(-21.991851, -8.309335) "></path>
            <path d="M26.1,0.9 L26.1,14.4 C26.1,14.8970563 26.5029437,15.3 27,15.3 C27.4970563,15.3 27.9,14.8970563 27.9,14.4 L27.9,0.9 C27.9,0.402943725 27.4970563,0 27,0 C26.5029437,0 26.1,0.402943725 26.1,0.9 Z" id="Path-2" transform="translate(27.000000, 7.650000) rotate(180.000000) translate(-27.000000, -7.650000) "></path>
            <path d="M31.1081485,1.55933526 L31.1081485,15.0593353 C31.1081485,15.5563915 31.5110922,15.9593353 32.0081485,15.9593353 C32.5052048,15.9593353 32.9081485,15.5563915 32.9081485,15.0593353 L32.9081485,1.55933526 C32.9081485,1.06227899 32.5052048,0.659335261 32.0081485,0.659335261 C31.5110922,0.659335261 31.1081485,1.06227899 31.1081485,1.55933526 Z" id="Path-2" transform="translate(32.008149, 8.309335) rotate(195.000000) translate(-32.008149, -8.309335) "></path>
            <path d="M35.775,3.49240844 L35.775,16.9924084 C35.775,17.4894647 36.1779437,17.8924084 36.675,17.8924084 C37.1720563,17.8924084 37.575,17.4894647 37.575,16.9924084 L37.575,3.49240844 C37.575,2.99535216 37.1720563,2.59240844 36.675,2.59240844 C36.1779437,2.59240844 35.775,2.99535216 35.775,3.49240844 Z" id="Path-2" transform="translate(36.675000, 10.242408) rotate(210.000000) translate(-36.675000, -10.242408) "></path>
            <path d="M39.7825162,6.56748378 L39.7825162,20.0674838 C39.7825162,20.5645401 40.1854599,20.9674838 40.6825162,20.9674838 C41.1795725,20.9674838 41.5825162,20.5645401 41.5825162,20.0674838 L41.5825162,6.56748378 C41.5825162,6.07042751 41.1795725,5.66748378 40.6825162,5.66748378 C40.1854599,5.66748378 39.7825162,6.07042751 39.7825162,6.56748378 Z" id="Path-2" transform="translate(40.682516, 13.317484) rotate(225.000000) translate(-40.682516, -13.317484) "></path>
            <path d="M42.8575916,10.575 L42.8575916,24.075 C42.8575916,24.5720563 43.2605353,24.975 43.7575916,24.975 C44.2546478,24.975 44.6575916,24.5720563 44.6575916,24.075 L44.6575916,10.575 C44.6575916,10.0779437 44.2546478,9.675 43.7575916,9.675 C43.2605353,9.675 42.8575916,10.0779437 42.8575916,10.575 Z" id="Path-2" transform="translate(43.757592, 17.325000) rotate(240.000000) translate(-43.757592, -17.325000) "></path>
            <path d="M44.7906647,15.2418515 L44.7906647,28.7418515 C44.7906647,29.2389078 45.1936085,29.6418515 45.6906647,29.6418515 C46.187721,29.6418515 46.5906647,29.2389078 46.5906647,28.7418515 L46.5906647,15.2418515 C46.5906647,14.7447952 46.187721,14.3418515 45.6906647,14.3418515 C45.1936085,14.3418515 44.7906647,14.7447952 44.7906647,15.2418515 Z" id="Path-2" transform="translate(45.690665, 21.991851) rotate(255.000000) translate(-45.690665, -21.991851) "></path>
            <path d="M45.45,20.25 L45.45,33.75 C45.45,34.2470563 45.8529437,34.65 46.35,34.65 C46.8470563,34.65 47.25,34.2470563 47.25,33.75 L47.25,20.25 C47.25,19.7529437 46.8470563,19.35 46.35,19.35 C45.8529437,19.35 45.45,19.7529437 45.45,20.25 Z" id="Path-2" transform="translate(46.350000, 27.000000) rotate(270.000000) translate(-46.350000, -27.000000) "></path>
            <path d="M44.7906647,25.2581485 L44.7906647,38.7581485 C44.7906647,39.2552048 45.1936085,39.6581485 45.6906647,39.6581485 C46.187721,39.6581485 46.5906647,39.2552048 46.5906647,38.7581485 L46.5906647,25.2581485 C46.5906647,24.7610922 46.187721,24.3581485 45.6906647,24.3581485 C45.1936085,24.3581485 44.7906647,24.7610922 44.7906647,25.2581485 Z" id="Path-2" transform="translate(45.690665, 32.008149) rotate(285.000000) translate(-45.690665, -32.008149) "></path>
            <path d="M42.8575916,29.925 L42.8575916,43.425 C42.8575916,43.9220563 43.2605353,44.325 43.7575916,44.325 C44.2546478,44.325 44.6575916,43.9220563 44.6575916,43.425 L44.6575916,29.925 C44.6575916,29.4279437 44.2546478,29.025 43.7575916,29.025 C43.2605353,29.025 42.8575916,29.4279437 42.8575916,29.925 Z" id="Path-2" transform="translate(43.757592, 36.675000) rotate(300.000000) translate(-43.757592, -36.675000) "></path>
            <path d="M39.7825162,33.9325162 L39.7825162,47.4325162 C39.7825162,47.9295725 40.1854599,48.3325162 40.6825162,48.3325162 C41.1795725,48.3325162 41.5825162,47.9295725 41.5825162,47.4325162 L41.5825162,33.9325162 C41.5825162,33.4354599 41.1795725,33.0325162 40.6825162,33.0325162 C40.1854599,33.0325162 39.7825162,33.4354599 39.7825162,33.9325162 Z" id="Path-2" transform="translate(40.682516, 40.682516) rotate(315.000000) translate(-40.682516, -40.682516) "></path>
            <path d="M35.775,37.0075916 L35.775,50.5075916 C35.775,51.0046478 36.1779437,51.4075916 36.675,51.4075916 C37.1720563,51.4075916 37.575,51.0046478 37.575,50.5075916 L37.575,37.0075916 C37.575,36.5105353 37.1720563,36.1075916 36.675,36.1075916 C36.1779437,36.1075916 35.775,36.5105353 35.775,37.0075916 Z" id="Path-2" transform="translate(36.675000, 43.757592) rotate(330.000000) translate(-36.675000, -43.757592) "></path>
            <path d="M31.1081485,38.9406647 L31.1081485,52.4406647 C31.1081485,52.937721 31.5110922,53.3406647 32.0081485,53.3406647 C32.5052048,53.3406647 32.9081485,52.937721 32.9081485,52.4406647 L32.9081485,38.9406647 C32.9081485,38.4436085 32.5052048,38.0406647 32.0081485,38.0406647 C31.5110922,38.0406647 31.1081485,38.4436085 31.1081485,38.9406647 Z" id="Path-2" transform="translate(32.008149, 45.690665) rotate(345.000000) translate(-32.008149, -45.690665) "></path>
        </g>
    </g>
</svg>