<?xml version="1.0" encoding="UTF-8"?>
<svg width="56px" height="56px" viewBox="0 0 56 56" version="1.1" xmlns="http://www.w3.org/2000/svg" xmlns:xlink="http://www.w3.org/1999/xlink">
    <!-- Generator: Sketch 54.1 (76490) - https://sketchapp.com -->
    <title>bullseye</title>
    <desc>Created with Sketch.</desc>
    <g id="bullseye" stroke="none" stroke-width="1" fill="none" fill-rule="evenodd">
        <g id="Group-2" transform="translate(1.000000, 1.000000)">
            <path d="M30.1460168,13.3548822 C29.1347672,13.1226788 28.0817102,13 27,13 C19.2680135,13 13,19.2680135 13,27 C13,34.7319865 19.2680135,41 27,41 L27,41 C34.7319865,41 41,34.7319865 41,27 C41,25.5740347 40.7868106,24.1978624 40.3905659,22.9016174" id="Path" stroke="#000000" stroke-linecap="round" transform="translate(27.000000, 27.000000) rotate(-1.000000) translate(-27.000000, -27.000000) "></path>
            <path d="M53.3120263,20.9169187 C53.8999423,23.4639319 54.1249456,26.1400833 53.9331179,28.8833471 C52.8929741,43.7580974 39.9914032,54.9732618 25.1166529,53.9331179 C10.2419026,52.8929741 -0.97326181,39.9914032 0.0668820571,25.1166529 C1.10702592,10.2419026 14.0085968,-0.97326181 28.8833471,0.0668820571 C30.9643348,0.212398896 32.9736964,0.590069975 34.8878954,1.17281965 L34.8878954,1.17281965" id="Path" stroke="#000000" stroke-linecap="round"></path>
            <circle id="Oval" fill="#000000" cx="27" cy="27" r="3"></circle>
            <polyline id="Path-4" stroke="#000000" fill="#000000" stroke-linecap="round" stroke-linejoin="round" points="27 27 36.3061201 17.6799867 36.3061201 10.2846039 45.4733944 1 44.8370361 9.12624149 53 8.26454077 43.7387943 17.6799867 36.3061201 17.6799867"></polyline>
        </g>
    </g>
</svg>