<?xml version="1.0" encoding="UTF-8"?>
<svg width="56px" height="56px" viewBox="0 0 56 56" version="1.1" xmlns="http://www.w3.org/2000/svg" xmlns:xlink="http://www.w3.org/1999/xlink">
    <!-- Generator: Sketch 54.1 (76490) - https://sketchapp.com -->
    <title>bullseye</title>
    <desc>Created with Sketch.</desc>
    <g id="bullseye" stroke="none" stroke-width="1" fill="none" fill-rule="evenodd">
        <path d="M31.2579149,13.8675642 C30.1974514,13.6240603 29.1066202,13.5 28,13.5 C19.9918711,13.5 13.5,19.9918711 13.5,28 C13.5,36.0081289 19.9918711,42.5 28,42.5 C36.0081289,42.5 42.5,36.0081289 42.5,28 C42.5,26.5456627 42.285705,25.1195305 41.8687242,23.7554509 C41.7879986,23.4913713 41.5084789,23.3427336 41.2443994,23.4234591 C40.9803199,23.5041847 40.8316821,23.7837044 40.9124076,24.047784 C41.3005067,25.3173821 41.5,26.6450089 41.5,28 C41.5,35.4558441 35.4558441,41.5 28,41.5 C20.5441559,41.5 14.5,35.4558441 14.5,28 C14.5,20.5441559 20.5441559,14.5 28,14.5 C29.0311732,14.5 30.0469338,14.6155225 31.0341188,14.8422002 C31.303257,14.9039998 31.5715352,14.7359186 31.6333348,14.4667803 C31.6951344,14.197642 31.5270532,13.9293638 31.2579149,13.8675642 Z" id="Path" fill="#FFFFFF" fill-rule="nonzero" transform="translate(28.000000, 28.000000) rotate(-1.000000) translate(-28.000000, -28.000000) "></path>
        <path d="M53.8248367,22.0293745 C54.4109828,24.56872 54.6198331,27.1957362 54.4343359,29.8484688 C53.4134548,44.4477494 40.7508118,55.4552171 26.1515312,54.4343359 C11.5522506,53.4134548 0.544782933,40.7508118 1.56566408,26.1515312 C2.58654523,11.5522506 15.2491882,0.544782933 29.8484688,1.56566408 C31.8671745,1.70682573 33.8402379,2.07209737 35.7422763,2.65114493 C36.006448,2.73156814 36.2857975,2.5826105 36.3662207,2.31843873 C36.4466439,2.05426697 36.2976862,1.77491756 36.0335145,1.69449436 C34.0595498,1.09354988 32.0121942,0.7145246 29.9182253,0.568100032 C14.7680053,-0.491306554 1.62750662,10.9315547 0.568100032,26.0817747 C-0.491306554,41.2319947 10.9315547,54.3724934 26.0817747,55.4319 C41.2319947,56.4913066 54.3724934,45.0684453 55.4319,29.9182253 C55.6243271,27.1663884 55.4075827,24.4400743 54.7992159,21.8044628 C54.7371082,21.5353954 54.4686378,21.3676214 54.1995704,21.4297291 C53.9305031,21.4918368 53.7627291,21.7603072 53.8248367,22.0293745 Z" id="Path" fill="#FFFFFF" fill-rule="nonzero"></path>
        <circle id="Oval" fill="#FFFFFF" cx="28" cy="28" r="3"></circle>
        <path d="M44.7387943,19.1799867 C44.8728339,19.1799867 45.0012609,19.1261682 45.0952553,19.0306083 L54.356461,9.61516241 C54.6854882,9.28065547 54.4141234,8.71804686 53.9475105,8.76730355 L46.3824475,9.56588851 L46.9718683,2.03903503 C47.0082584,1.57433744 46.4450944,1.31701596 46.1176001,1.64870184 L36.9503257,10.9333057 C36.8579295,11.0268845 36.8061201,11.153097 36.8061201,11.2846039 L36.8061201,18.4730984 L27.646183,27.6467104 C27.4510665,27.8421182 27.4513027,28.1587006 27.6467104,28.353817 C27.8421182,28.5489335 28.1587006,28.5486973 28.353817,28.3532896 L37.5134454,19.1799867 L44.7387943,19.1799867 Z" id="Path" fill="#FFFFFF" fill-rule="nonzero"></path>
    </g>
</svg>