<?xml version="1.0" encoding="UTF-8"?>
<svg width="56px" height="56px" viewBox="0 0 56 56" version="1.1" xmlns="http://www.w3.org/2000/svg" xmlns:xlink="http://www.w3.org/1999/xlink">
    <!-- Generator: Sketch 54.1 (76490) - https://sketchapp.com -->
    <title>car</title>
    <desc>Created with Sketch.</desc>
    <g id="car" stroke="none" stroke-width="1" fill="none" fill-rule="evenodd">
        <g id="Group-6" transform="translate(1.000000, 9.000000)">
            <path d="M26.9478752,0.00431123344 C34.5323357,0.0839666851 42.0188663,0.964100348 42.7998988,1.85506464 C45.4963259,4.93101888 46.863147,9.87620972 46.863147,12.2927125 C49.7596619,13.5810051 52.1692352,15.77048 52.5657413,16.2507269 C53.2142919,20.0056728 53.0336561,25.1382895 52.3851055,32.4882164 C49.8567918,32.994302 46.2723256,33.293753 40.7360939,33.1404079 C40.3595083,33.1299771 39.352668,32.2914902 38.9568666,32.2914902 C37.276739,32.2389239 31.0504593,32.8087585 26.9438708,32.8749512 C22.8372823,32.9411439 16.6110026,32.2389239 14.930875,32.2914902 C14.5350736,32.2914902 13.5282334,33.1299771 13.1516478,33.1404079 C7.61541598,33.293753 4.03094985,32.994302 1.50263607,32.4882164 C0.854085468,25.1382895 0.67344968,20.0056728 1.32200028,16.2507269 C1.7185064,15.77048 4.12807976,13.5810051 7.02459459,12.2927125 C7.02459459,9.87620972 8.39141572,4.93101888 11.0878428,1.85506464 C11.8688753,0.964100348 19.3634147,-0.0753442183 26.9478752,0.00431123344 Z" id="Path" stroke="#000000"></path>
            <path d="M26.8797327,28.849662 C31.3921139,28.849662 35.6276491,28.849662 38.0502593,28.1580078 C39.6477462,27.7019259 39.8084633,26.3104022 39.8084633,25.6625796 C39.8084633,23.5519127 34.0200734,22.1696613 26.8797327,22.1696613 C19.739392,22.1696613 13.9510022,23.5519127 13.9510022,25.6625796 C13.9510022,26.4443004 14.1696665,27.6118096 16.1034808,28.1580078 C18.552282,28.849662 22.9105237,28.849662 26.8797327,28.849662 Z" id="Oval" fill="#000000"></path>
            <path d="M1.32293987,34.4332223 C3.03228529,34.656668 7.34176425,35.115598 9.50111359,35.115598 L9.5011138,37.1481077 C9.50111388,37.4137948 9.28573196,37.6291767 9.02004486,37.6291768 L2.64587973,37.6291767 C1.91524022,37.6291767 1.32293987,37.0368764 1.32293987,36.3062368 C1.32293987,35.6818987 1.32293987,35.0575605 1.32293987,34.4332223 Z" id="Rectangle" fill="#000000"></path>
            <path d="M44.3786192,34.4332223 C46.0879646,34.656668 50.3974435,35.115598 52.5567929,35.115598 L52.5567931,37.1481077 C52.5567932,37.4137948 52.3414112,37.6291767 52.0757241,37.6291768 L45.701559,37.6291767 C44.9709195,37.6291767 44.3786192,37.0368764 44.3786192,36.3062368 C44.3786192,35.6818987 44.3786192,35.0575605 44.3786192,34.4332223 Z" id="Rectangle" fill="#000000" transform="translate(48.467706, 36.031200) scale(-1, 1) translate(-48.467706, -36.031200) "></path>
            <path d="M5.05122494,10.0254426 L6.86383012,10.2920654 L6.57928467,12.3167114 L1.1731656,11.3938348 C0.492472773,11.264179 0,10.6690478 0,9.9761168 L0,9.81827437 C0,9.06759914 0.533512171,8.42287361 1.2709294,8.28241318 L3.76628845,7.8071067 C4.35352648,7.69525184 4.92025325,8.08062604 5.03210811,8.66786407 C5.04482441,8.7346246 5.05122494,8.80243439 5.05122494,8.87039521 L5.05122494,10.0254426 Z" id="Path" fill="#000000"></path>
            <path d="M52.0033738,10.0254426 L53.9163113,10.3159911 L53.6317658,12.3406372 L48.1253145,11.3938348 C47.4446217,11.264179 46.9521489,10.6690478 46.9521489,9.9761168 L46.9521489,9.81827437 C46.9521489,9.06759914 47.4856611,8.42287361 48.2230783,8.28241318 L50.7184373,7.8071067 C51.3056754,7.69525184 51.8724021,8.08062604 51.984257,8.66786407 C51.9969733,8.7346246 52.0033738,8.80243439 52.0033738,8.87039521 L52.0033738,10.0254426 Z" id="Path" fill="#000000" transform="translate(50.434230, 10.064215) scale(-1, 1) translate(-50.434230, -10.064215) "></path>
            <path d="M3.84855234,16.822936 C7.33203238,16.6055297 13.7912546,17.8364578 16.1719533,20.6239804 C15.8033041,20.7826703 13.7912546,21.0611912 13.0381925,21.0731034 C12.3764055,21.0835718 10.8164937,21.0298783 8.35845716,20.9120228 C7.92329251,21.24352 7.63346877,21.4038764 7.48898594,21.3930919 C4.81720881,21.1936643 3.32563893,20.5058859 3.84855234,16.822936 Z" id="Rectangle" fill="#000000"></path>
            <path d="M37.7639198,16.822936 C41.2473999,16.6055297 47.7066221,17.8364578 50.0873208,20.6239804 C49.7186716,20.7826703 47.7066221,21.0611912 46.95356,21.0731034 C46.291773,21.0835718 44.7318612,21.0298783 42.2738246,20.9120228 C41.83866,21.24352 41.5488363,21.4038764 41.4043534,21.3930919 C38.7325763,21.1936643 37.2410064,20.5058859 37.7639198,16.822936 Z" id="Rectangle" fill="#000000" transform="translate(43.873768, 19.096054) scale(-1, 1) translate(-43.873768, -19.096054) "></path>
            <path d="M7.6060791,12.1472778 C13.3537102,11.6862756 19.7996407,11.4557746 26.9438708,11.4557746 C34.0881009,11.4557746 40.5557242,11.6862756 46.3467407,12.1472778" id="Path-6" stroke="#000000" stroke-linecap="square"></path>
        </g>
    </g>
</svg>