<?xml version="1.0" encoding="UTF-8"?>
<svg width="512px" height="512px" viewBox="0 0 512 512" version="1.1" xmlns="http://www.w3.org/2000/svg" xmlns:xlink="http://www.w3.org/1999/xlink">
    <!-- Generator: Sketch 54.1 (76490) - https://sketchapp.com -->
    <title>cyprusjs-logo-white</title>
    <desc>Created with Sketch.</desc>
    <defs>
        <path d="M272,9.23760431 L461.702503,118.762396 C471.603338,124.478645 477.702503,135.04271 477.702503,146.475209 L477.702503,365.524791 C477.702503,376.95729 471.603338,387.521355 461.702503,393.237604 L272,502.762396 C262.099166,508.478645 249.900834,508.478645 240,502.762396 L50.2974966,393.237604 C40.3966622,387.521355 34.2974966,376.95729 34.2974966,365.524791 L34.2974966,146.475209 C34.2974966,135.04271 40.3966622,124.478645 50.2974966,118.762396 L240,9.23760431 C249.900834,3.52135487 262.099166,3.52135487 272,9.23760431 Z" id="path-1"></path>
        <path d="M264,132.618802 L358.851252,187.381198 C363.801669,190.239323 366.851252,195.521355 366.851252,201.237604 L366.851252,310.762396 C366.851252,316.478645 363.801669,321.760677 358.851252,324.618802 L264,379.381198 C259.049583,382.239323 252.950417,382.239323 248,379.381198 L153.148748,324.618802 C148.198331,321.760677 145.148748,316.478645 145.148748,310.762396 L145.148748,201.237604 C145.148748,195.521355 148.198331,190.239323 153.148748,187.381198 L248,132.618802 C252.950417,129.760677 259.049583,129.760677 264,132.618802 Z" id="path-3"></path>
    </defs>
    <g id="cyprusjs-logo-white" stroke="none" stroke-width="1" fill="none" fill-rule="evenodd">
        <g id="Group">
            <mask id="mask-2" fill="white">
                <use xlink:href="#path-1"></use>
            </mask>
            <path stroke="#FFFFFF" stroke-width="4" d="M273,7.5055535 L462.702503,117.030345 C473.22214,123.10386 479.702503,134.328179 479.702503,146.475209 L479.702503,365.524791 C479.702503,377.671821 473.22214,388.89614 462.702503,394.969655 L273,504.494447 C262.480363,510.567962 249.519637,510.567962 239,504.494447 L49.2974966,394.969655 C38.77786,388.89614 32.2974966,377.671821 32.2974966,365.524791 L32.2974966,146.475209 C32.2974966,134.328179 38.77786,123.10386 49.2974966,117.030345 L239,7.5055535 C249.519637,1.43203847 262.480363,1.43203847 273,7.5055535 Z"></path>
            <path d="M366.851252,319.5 L476.5,383" id="Path" stroke="#FFFFFF" stroke-linecap="square" mask="url(#mask-2)"></path>
            <path d="M36,129 L145.148748,192" id="Path" stroke="#FFFFFF" stroke-linecap="square" mask="url(#mask-2)"></path>
            <path d="M35.8512517,319.5 L145,383" id="Path" stroke="#FFFFFF" mask="url(#mask-2)" transform="translate(90.500000, 351.119045) scale(-1, 1) translate(-90.500000, -351.119045) "></path>
            <path d="M367,129 L476.148748,192" id="Path" stroke="#FFFFFF" mask="url(#mask-2)" transform="translate(421.500000, 160.619045) scale(-1, 1) translate(-421.500000, -160.619045) "></path>
            <path d="M256,256 L256,510" id="Path" stroke="#FFFFFF" mask="url(#mask-2)"></path>
            <path d="M256,2 L256,129" id="Path" stroke="#FFFFFF" mask="url(#mask-2)"></path>
            <mask id="mask-4" fill="white">
                <use xlink:href="#path-3"></use>
            </mask>
            <use id="Mask" stroke="#FFFFFF" stroke-width="12" xlink:href="#path-3"></use>
            <path d="M256,384 L153.148748,324.618802 C148.198331,321.760677 145.148748,316.478645 145.148748,310.762396 L145.148748,201.237604 C145.148748,195.521355 148.198331,190.239323 153.148748,187.381198 L256,128 L256,128" id="Path" stroke="#FFFFFF" stroke-width="4" mask="url(#mask-4)"></path>
            <path d="M256,128 L358.851252,187.381198 C363.801669,190.239323 366.851252,195.521355 366.851252,201.237604 L366.851252,310.762396 C366.851252,316.478645 363.801669,321.760677 358.851252,324.618802 L256,384" id="Shape" stroke="#FFFFFF" stroke-width="4" mask="url(#mask-4)"></path>
            <path d="M264,132.618802 L366.851252,192 L263.946865,251.382888 C258.995843,254.239967 252.896677,254.238677 247.946863,251.379506 L145.148748,192 L248,132.618802 C252.950417,129.760677 259.049583,129.760677 264,132.618802 Z" id="Top" stroke="#FFFFFF" stroke-width="4" mask="url(#mask-4)"></path>
        </g>
    </g>
</svg>