<?xml version="1.0" encoding="UTF-8"?>
<svg width="67px" height="15px" viewBox="0 0 67 15" version="1.1" xmlns="http://www.w3.org/2000/svg" xmlns:xlink="http://www.w3.org/1999/xlink">
    <!-- Generator: Sketch 54.1 (76490) - https://sketchapp.com -->
    <title>cyprusjs-logo</title>
    <desc>Created with Sketch.</desc>
    <g id="cyprusjs-logo" stroke="none" stroke-width="1" fill="none" fill-rule="evenodd">
        <path d="M8.76745768,2.85714286 C8.46716405,2.46376615 8.07571573,2.17650194 7.59310097,1.99534161 C7.1104862,1.81418129 6.63860329,1.72360248 6.17743808,1.72360248 C5.58757559,1.72360248 5.05134501,1.82712112 4.56873024,2.03416149 C4.08611548,2.24120186 3.67053678,2.52587811 3.32198167,2.88819876 C2.97342657,3.25051941 2.70531128,3.67494581 2.51762776,4.16149068 C2.32994424,4.64803556 2.23610389,5.17598059 2.23610389,5.74534161 C2.23610389,6.3457587 2.32726309,6.89440745 2.50958422,7.39130435 C2.69190535,7.88820124 2.95197718,8.31521561 3.28980752,8.67236025 C3.62763785,9.02950489 4.03249194,9.30641724 4.50438193,9.50310559 C4.97627192,9.69979394 5.5071402,9.79813665 6.09700268,9.79813665 C6.70831472,9.79813665 7.2499076,9.68167818 7.72179759,9.44875776 C8.19368758,9.21583734 8.5744113,8.90786941 8.86398015,8.52484472 L10.4887751,9.62732919 C9.98471076,10.2380983 9.36804559,10.711696 8.63876106,11.0481366 C7.90947653,11.3845773 7.0568699,11.552795 6.08091561,11.552795 C5.19075949,11.552795 4.37300785,11.4104569 3.62763616,11.1257764 C2.88226447,10.8410959 2.24146893,10.4425491 1.7052303,9.93012422 C1.16899168,9.4176993 0.750731823,8.80693936 0.450438193,8.09782609 C0.150144563,7.38871281 0,6.60455916 0,5.74534161 C0,4.86542003 0.158188022,4.07091452 0.47456881,3.36180124 C0.790949599,2.65268797 1.22529637,2.04969193 1.77762215,1.55279503 C2.32994794,1.05589814 2.9814681,0.672879193 3.73220217,0.403726708 C4.48293625,0.134574224 5.29800673,0 6.17743808,0 C6.54208034,0 6.92280405,0.0336435559 7.31962064,0.100931677 C7.71643722,0.168219798 8.09716093,0.271738432 8.4618032,0.411490683 C8.82644546,0.551242935 9.16963303,0.724636646 9.49137621,0.931677019 C9.81311938,1.13871739 10.086597,1.38716211 10.3118172,1.67701863 L8.76745768,2.85714286 Z M10.1321782,3.81987578 L12.2717596,3.81987578 L14.4274281,9.23913043 L14.4596022,9.23913043 L16.3739645,3.81987578 L18.3848493,3.81987578 L14.7330826,12.8726708 C14.5936605,13.2142874 14.443516,13.5170794 14.2826444,13.7810559 C14.1217728,14.0450324 13.9287298,14.2675974 13.7035095,14.4487578 C13.4782893,14.6299181 13.2128552,14.7670803 12.9071992,14.8602484 C12.6015432,14.9534166 12.2342252,15 11.8052343,15 C11.6443627,15 11.4808124,14.9922361 11.3145784,14.9767081 C11.1483444,14.96118 10.9794318,14.9327124 10.8078354,14.8913043 L10.9687062,13.2763975 C11.0974035,13.3178056 11.2234177,13.3462732 11.3467526,13.3618012 C11.4700875,13.3773293 11.585377,13.3850932 11.6926248,13.3850932 C11.8963954,13.3850932 12.0679892,13.3618015 12.2074113,13.3152174 C12.3468333,13.2686333 12.464804,13.1961703 12.561327,13.0978261 C12.6578499,12.9994819 12.7436468,12.8778475 12.8187202,12.7329193 C12.8937936,12.587991 12.9742282,12.4171852 13.0600264,12.2204969 L13.4461163,11.2732919 L10.1321782,3.81987578 Z M21.3261035,3.81987578 L21.3261035,4.86024845 L21.3743647,4.86024845 C21.4708877,4.71532019 21.5969019,4.56780613 21.7524111,4.41770186 C21.9079203,4.26759759 22.0982821,4.13302337 22.3235023,4.01397516 C22.5487226,3.89492694 22.8034321,3.79658424 23.0876386,3.7189441 C23.371845,3.64130396 23.6909022,3.60248447 24.0448197,3.60248447 C24.5917831,3.60248447 25.0958399,3.70341514 25.5570051,3.9052795 C26.0181703,4.10714387 26.4149809,4.38405621 26.7474489,4.73602484 C27.0799168,5.08799348 27.3373075,5.50206801 27.5196286,5.97826087 C27.7019498,6.45445373 27.793109,6.96687096 27.793109,7.51552795 C27.793109,8.06418494 27.7046309,8.57919014 27.5276722,9.06055901 C27.3507134,9.54192787 27.0986851,9.96117834 26.7715795,10.318323 C26.4444739,10.6754676 26.0476633,10.9601439 25.5811357,11.1723602 C25.1146081,11.3845766 24.586421,11.4906832 23.9965585,11.4906832 C23.4495951,11.4906832 22.9482195,11.3819887 22.4924167,11.1645963 C22.0366138,10.9472039 21.6853828,10.6521758 21.438713,10.2795031 L21.4065389,10.2795031 L21.4065389,15 L19.4760895,15 L19.4760895,3.81987578 L21.3261035,3.81987578 Z M25.8304854,7.51552795 C25.8304854,7.22567143 25.7849058,6.93840722 25.6937453,6.65372671 C25.6025847,6.3690462 25.4658459,6.11283758 25.2835248,5.88509317 C25.1012036,5.65734876 24.8706245,5.47360318 24.5917804,5.33385093 C24.3129363,5.19409868 23.9858356,5.1242236 23.6104686,5.1242236 C23.2565511,5.1242236 22.9401751,5.19668665 22.661331,5.34161491 C22.3824869,5.48654317 22.1438643,5.67287671 21.945456,5.90062112 C21.7470477,6.12836553 21.5969031,6.38716211 21.4950178,6.67701863 C21.3931325,6.96687516 21.3421906,7.25672733 21.3421906,7.54658385 C21.3421906,7.83644037 21.3931325,8.12370458 21.4950178,8.40838509 C21.5969031,8.69306561 21.7470477,8.94927422 21.945456,9.17701863 C22.1438643,9.40476304 22.3824869,9.58850862 22.661331,9.72826087 C22.9401751,9.86801312 23.2565511,9.9378882 23.6104686,9.9378882 C23.9858356,9.9378882 24.3129363,9.86542516 24.5917804,9.72049689 C24.8706245,9.57556863 25.1012036,9.38923509 25.2835248,9.16149068 C25.4658459,8.93374627 25.6025847,8.67494969 25.6937453,8.38509317 C25.7849058,8.09523665 25.8304854,7.80538447 25.8304854,7.51552795 Z M29.5921806,3.81987578 L31.4421946,3.81987578 L31.4421946,5.0621118 L31.4743687,5.0621118 C31.6888642,4.62732702 31.9891533,4.27536366 32.3752451,4.00621118 C32.7613369,3.7370587 33.2117706,3.60248447 33.7265597,3.60248447 C33.8016331,3.60248447 33.8820677,3.60507244 33.9678659,3.61024845 C34.053664,3.61542446 34.1287363,3.62836429 34.193085,3.64906832 L34.193085,5.35714286 C34.0643877,5.3260868 33.9544604,5.30538307 33.8632999,5.29503106 C33.7721393,5.28467904 33.6836612,5.27950311 33.5978631,5.27950311 C33.1581474,5.27950311 32.8042352,5.35714208 32.5361159,5.51242236 C32.2679966,5.66770264 32.0588667,5.85403618 31.9087198,6.07142857 C31.758573,6.28882096 31.6566892,6.51138602 31.6030653,6.73913043 C31.5494415,6.96687484 31.52263,7.14803245 31.52263,7.2826087 L31.52263,11.2732919 L29.5921806,11.2732919 L29.5921806,3.81987578 Z M42.4269879,11.2732919 L40.5930609,11.2732919 L40.5930609,10.0776398 L40.5608868,10.0776398 C40.3892904,10.4503124 40.0916825,10.7789841 39.6680539,11.0636646 C39.2444254,11.3483451 38.7430498,11.4906832 38.1639121,11.4906832 C37.6598478,11.4906832 37.2281822,11.4052804 36.8689023,11.234472 C36.5096224,11.0636637 36.2146956,10.8385107 35.984113,10.5590062 C35.7535304,10.2795017 35.5846178,9.95859394 35.47737,9.59627329 C35.3701223,9.23395264 35.3164993,8.86128556 35.3164993,8.47826087 L35.3164993,3.81987578 L37.2469487,3.81987578 L37.2469487,7.95031056 C37.2469487,8.16770295 37.2630356,8.39544394 37.2952099,8.63354037 C37.3273842,8.8716368 37.3970942,9.08643797 37.5043419,9.27795031 C37.6115896,9.46946266 37.759053,9.62732857 37.9467366,9.7515528 C38.1344201,9.87577702 38.3837673,9.9378882 38.6947857,9.9378882 C38.9950793,9.9378882 39.2605135,9.87836498 39.4910961,9.75931677 C39.7216787,9.64026856 39.9093594,9.48757857 40.0541438,9.30124224 C40.1989283,9.1149059 40.3088555,8.90010474 40.3839289,8.6568323 C40.4590023,8.41355986 40.4965385,8.16770311 40.4965385,7.91925466 L40.4965385,3.81987578 L42.4269879,3.81987578 L42.4269879,11.2732919 Z M48.9073993,5.80745342 C48.7358029,5.59006102 48.4998614,5.40113952 48.1995678,5.24068323 C47.8992742,5.08022694 47.5721735,5 47.218256,5 C46.9072376,5 46.6230354,5.06211118 46.3656409,5.1863354 C46.1082463,5.31055963 45.979551,5.51759689 45.979551,5.80745342 C45.979551,6.09730994 46.1216521,6.30175924 46.4058586,6.42080745 C46.690065,6.53985567 47.1056437,6.66149006 47.6526071,6.78571429 C47.942176,6.8478264 48.2344217,6.9306413 48.5293529,7.03416149 C48.8242842,7.13768168 49.0923995,7.27484387 49.3337068,7.44565217 C49.5750142,7.61646048 49.7707384,7.82867368 49.9208852,8.08229814 C50.071032,8.33592259 50.1461043,8.64389053 50.1461043,9.00621118 C50.1461043,9.4617 50.0576262,9.84730691 49.8806675,10.1630435 C49.7037087,10.47878 49.4677673,10.7349887 49.172836,10.931677 C48.8779048,11.1283654 48.5347172,11.2707035 48.143263,11.3586957 C47.7518088,11.4466878 47.3469548,11.4906832 46.9286886,11.4906832 C46.3281014,11.4906832 45.74361,11.3845766 45.1751971,11.1723602 C44.6067841,10.9601439 44.1349012,10.6573519 43.7595342,10.2639752 L45.0304134,9.11490683 C45.2449088,9.38405932 45.5237487,9.60662438 45.8669415,9.7826087 C46.2101342,9.95859301 46.5908579,10.0465839 47.009124,10.0465839 C47.1485461,10.0465839 47.2906472,10.0310561 47.4354316,10 C47.580216,9.96894394 47.7142737,9.91977259 47.8376085,9.85248447 C47.9609434,9.78519635 48.0601461,9.69461755 48.1352195,9.58074534 C48.2102929,9.46687314 48.247829,9.32712298 48.247829,9.16149068 C48.247829,8.85093012 48.1003656,8.62836506 47.8054344,8.49378882 C47.5105031,8.35921258 47.0681129,8.22463835 46.4782504,8.09006211 C46.1886816,8.02795 45.9071605,7.94772306 45.6336788,7.84937888 C45.3601971,7.7510347 45.1162122,7.62163641 44.9017168,7.46118012 C44.6872213,7.30072384 44.5156275,7.10145047 44.3869302,6.86335404 C44.258233,6.62525761 44.1938853,6.3302295 44.1938853,5.97826087 C44.1938853,5.56418012 44.2823634,5.20704084 44.4593221,4.9068323 C44.6362808,4.60662376 44.8695411,4.360767 45.15911,4.16925466 C45.4486789,3.97774231 45.7757795,3.83540419 46.1404218,3.74223602 C46.5050641,3.64906786 46.8804255,3.60248447 47.2665173,3.60248447 C47.8242054,3.60248447 48.3684795,3.69565124 48.8993557,3.88198758 C49.430232,4.06832391 49.851173,4.35300016 50.1621914,4.73602484 L48.9073993,5.80745342 Z M57.4469567,7.7173913 C57.4469567,8.12112003 57.4013771,8.54554643 57.3102165,8.99068323 C57.2190559,9.43582003 57.0501433,9.84989457 56.8034735,10.2329193 C56.5568038,10.6159439 56.2082539,10.9316758 55.7578134,11.1801242 C55.307373,11.4285727 54.728244,11.552795 54.020409,11.552795 C53.0980785,11.552795 52.3607615,11.33023 51.8084357,10.8850932 C51.2561099,10.4399564 50.8780674,9.85507609 50.6742967,9.13043478 L52.5403978,8.61801242 C52.6369207,8.98033307 52.8138768,9.26759728 53.0712714,9.47981366 C53.3286659,9.69203005 53.6343173,9.79813665 53.9882348,9.79813665 C54.2778037,9.79813665 54.5164263,9.74637733 54.7041098,9.64285714 C54.8917933,9.53933696 55.0365756,9.3918229 55.1384609,9.20031056 C55.2403463,9.00879821 55.3127374,8.78105722 55.3556365,8.51708075 C55.3985356,8.25310427 55.4199848,7.96584006 55.4199848,7.6552795 L55.4199848,0.279503106 L57.4469567,0.279503106 L57.4469567,7.7173913 Z M65.6004242,2.57763975 C65.3859287,2.30848727 65.0829585,2.08333424 64.6915043,1.90217391 C64.3000501,1.72101359 63.9059206,1.63043478 63.509104,1.63043478 C63.273159,1.63043478 63.0372176,1.65890241 62.8012726,1.71583851 C62.5653276,1.77277461 62.3508353,1.86076545 62.1577894,1.97981366 C61.9647435,2.09886188 61.8065555,2.25413983 61.6832206,2.44565217 C61.5598857,2.63716452 61.4982192,2.86749348 61.4982192,3.13664596 C61.4982192,3.38509441 61.5518423,3.59730761 61.65909,3.77329193 C61.7663377,3.94927624 61.9138011,4.09937826 62.1014847,4.22360248 C62.2891682,4.34782671 62.5170662,4.45652127 62.7851855,4.54968944 C63.0533048,4.64285761 63.3482316,4.73602438 63.6699748,4.82919255 C64.0346171,4.94306475 64.4126596,5.07246304 64.8041138,5.2173913 C65.195568,5.36231957 65.5548425,5.55382904 65.8819481,5.79192547 C66.2090536,6.03002189 66.4771689,6.33022593 66.686302,6.69254658 C66.895435,7.05486724 67,7.50517329 67,8.04347826 C67,8.63354332 66.8873916,9.14854852 66.6621714,9.58850932 C66.4369511,10.0284701 66.136662,10.3933733 65.761295,10.6832298 C65.3859279,10.9730863 64.9462189,11.1904755 64.4421545,11.3354037 C63.9380902,11.480332 63.407222,11.552795 62.8495338,11.552795 C62.1095245,11.552795 61.3856132,11.4208088 60.6777782,11.1568323 C59.9699432,10.8928558 59.3908142,10.502073 58.9403738,9.98447205 L60.3882108,8.68012422 C60.6670549,9.05279689 61.0397351,9.347825 61.5062628,9.56521739 C61.9727904,9.78260978 62.4312675,9.89130435 62.8817079,9.89130435 C63.1176529,9.89130435 63.3589567,9.86283672 63.6056265,9.80590062 C63.8522962,9.74896452 64.0748319,9.65320978 64.2732402,9.51863354 C64.4716485,9.3840573 64.6325177,9.21583952 64.7558526,9.01397516 C64.8791875,8.81211079 64.940854,8.56107811 64.940854,8.26086957 C64.940854,7.97101304 64.871144,7.73033222 64.731722,7.53881988 C64.5922999,7.34730753 64.4046192,7.18167772 64.1686742,7.04192547 C63.9327292,6.90217321 63.6538893,6.78053882 63.3321461,6.67701863 L62.3186602,6.35093168 C61.9754675,6.24741149 61.6322799,6.12318913 61.2890872,5.97826087 C60.9458945,5.83333261 60.6375619,5.64182314 60.3640802,5.40372671 C60.0905985,5.16563028 59.8680628,4.87319014 59.6964664,4.52639752 C59.5248701,4.17960489 59.4390732,3.7474146 59.4390732,3.22981366 C59.4390732,2.67080466 59.5597251,2.18944301 59.8010325,1.78571429 C60.0423398,1.38198556 60.3587159,1.04813797 60.7501701,0.784161491 C61.1416243,0.520185016 61.5866957,0.323499612 62.0853976,0.194099379 C62.5840995,0.064699146 63.0908374,0 63.6056265,0 C64.1847642,0 64.7719367,0.0983427019 65.3671616,0.295031056 C65.9623864,0.49171941 66.4798489,0.786747516 66.9195646,1.18012422 L65.6004242,2.57763975 Z" id="CyprusJS" fill="#FFFFFF" fill-rule="nonzero"></path>
    </g>
</svg>