<?xml version="1.0" encoding="UTF-8"?>
<svg width="56px" height="56px" viewBox="0 0 56 56" version="1.1" xmlns="http://www.w3.org/2000/svg" xmlns:xlink="http://www.w3.org/1999/xlink">
    <!-- Generator: Sketch 54.1 (76490) - https://sketchapp.com -->
    <title>talking</title>
    <desc>Created with Sketch.</desc>
    <g id="talking" stroke="none" stroke-width="1" fill="none" fill-rule="evenodd">
        <path d="M36.64,44.6098987 C38.202871,44.6098987 39.7140515,44.4549796 41.1439118,44.1658822 C42.3843082,43.9150917 42.3843082,49.064635 54.2142578,47.7425843 C49.3302637,43.9150917 46.8200663,42.1369621 47.7527327,41.5212507 C50.8849195,39.4534982 52.84,36.5215202 52.84,33.2698987 C52.84,27.0069897 45.5870129,21.9298987 36.64,21.9298987 C27.6929871,21.9298987 20.44,27.0069897 20.44,33.2698987 C20.44,39.5328078 27.6929871,44.6098987 36.64,44.6098987 Z" id="Oval" stroke="#FFFFFF" fill="#FFFFFF"></path>
        <path d="M20.1287566,34.3438058 C21.7575784,34.3147502 23.3345099,34.1381629 24.8337759,33.8322522 C26.2616862,33.5409008 26.2616862,39.5232898 39.88,37.9874212 C34.2576798,33.5409008 31.3680094,31.4751909 32.4416694,30.7598993 C36.0473569,28.3577252 38.2979921,24.9515527 38.2979921,21.1740402 C38.2979921,13.8982187 29.9485521,8 19.648996,8 C9.34943993,8 1,13.8982187 1,21.1740402 C1,21.3783245 1.00658208,21.5815227 1.0196046,21.783535" id="Path" stroke="#FFFFFF" transform="translate(20.440000, 23.120000) scale(-1, 1) translate(-20.440000, -23.120000) "></path>
    </g>
</svg>