<?xml version="1.0" encoding="UTF-8"?>
<svg width="56px" height="56px" viewBox="0 0 56 56" version="1.1" xmlns="http://www.w3.org/2000/svg" xmlns:xlink="http://www.w3.org/1999/xlink">
    <!-- Generator: Sketch 54.1 (76490) - https://sketchapp.com -->
    <title>user</title>
    <desc>Created with Sketch.</desc>
    <g id="user" stroke="none" stroke-width="1" fill="none" fill-rule="evenodd">
        <circle id="Oval" stroke="#0D6A78" cx="28" cy="28" r="27"></circle>
        <path d="M11.0987838,48.9828977 C11.6914034,47.9408896 12.5615654,47.0624481 13.6403407,46.4656604 L20.9393407,42.4251321 C21.8974316,41.8954717 22.493068,40.8768302 22.493068,39.7701887 L22.493068,36.7358491 C22.493068,36.7358491 20.351068,34.1365283 19.5337044,30.5235472 C18.8554316,30.078566 18.4021589,29.3089811 18.4021589,28.4339623 L18.4021589,25.1132075 C18.4021589,24.3826415 18.722068,23.729283 19.2203407,23.2726792 L19.2203407,18.4716981 C19.2203407,18.4716981 18.2483407,11 28.2203407,11 C38.1915225,11 37.2203407,18.4716981 37.2203407,18.4716981 L37.2203407,23.2726792 C37.7186135,23.729283 38.0385225,24.3826415 38.0385225,25.1132075 L38.0385225,28.4339623 C38.0385225,29.550566 37.3005225,30.4903396 36.2982498,30.8033208 C35.7394316,32.5658113 34.9343407,34.245283 33.869068,35.7711698 C33.6007044,36.1563774 33.3487044,36.4826415 33.1294316,36.7358491 L33.1294316,39.8473962 C33.1294316,40.9930566 33.7676135,42.0407547 34.7772498,42.5529811 L42.5925225,46.5179623 C43.676088,47.067898 44.5652602,47.8975285 45.1921006,48.8956149 C40.5357862,52.7106786 34.581193,55 28.0919001,55 C21.6522476,55 15.7391456,52.7455694 11.0987838,48.9828977 Z" id="Path" fill="#0D6A78"></path>
    </g>
</svg>