<?xml version="1.0" encoding="UTF-8"?>
<svg width="56px" height="56px" viewBox="0 0 56 56" version="1.1" xmlns="http://www.w3.org/2000/svg" xmlns:xlink="http://www.w3.org/1999/xlink">
    <!-- Generator: Sketch 54.1 (76490) - https://sketchapp.com -->
    <title>users</title>
    <desc>Created with Sketch.</desc>
    <g id="users" stroke="none" stroke-width="1" fill="none" fill-rule="evenodd">
        <path d="M13.2203407,50.5992904 C13.6768122,48.8582591 14.8185344,47.3516049 16.42,46.4656604 L23.719,42.4251321 C24.6770909,41.8954717 25.2727273,40.8768302 25.2727273,39.7701887 L25.2727273,36.7358491 C25.2727273,36.7358491 23.1307273,34.1365283 22.3133636,30.5235472 C21.6350909,30.078566 21.1818182,29.3089811 21.1818182,28.4339623 L21.1818182,25.1132075 C21.1818182,24.3826415 21.5017273,23.729283 22,23.2726792 L22,18.4716981 C22,18.4716981 21.028,11 31,11 C40.9711818,11 40,18.4716981 40,18.4716981 L40,23.2726792 C40.4982727,23.729283 40.8181818,24.3826415 40.8181818,25.1132075 L40.8181818,28.4339623 C40.8181818,29.550566 40.0801818,30.4903396 39.0779091,30.8033208 C38.5190909,32.5658113 37.714,34.245283 36.6487273,35.7711698 C36.3803636,36.1563774 36.1283636,36.4826415 35.9090909,36.7358491 L35.9090909,39.8473962 C35.9090909,40.9930566 36.5472727,42.0407547 37.5569091,42.5529811 L45.3721818,46.5179623 C45.8697995,46.7705153 46.3264193,47.0820567 46.7354608,47.4418122 C41.8801476,52.1218033 35.2761932,55 28,55 C22.5442536,55 17.4664478,53.3818441 13.2203407,50.5992904 Z" id="Combined-Shape" fill="#000000"></path>
        <path d="M27.0042754,9.87549935 C25.7572842,9.34023575 24.1277811,9 22,9 C12.028,9 13,16.4716981 13,16.4716981 L13,21.2726792 C12.5017273,21.729283 12.1818182,22.3826415 12.1818182,23.1132075 L12.1818182,26.4339623 C12.1818182,27.3089811 12.6350909,28.078566 13.3133636,28.5235472 C14.1307273,32.1365283 16.2727273,34.7358491 16.2727273,34.7358491 L16.2727273,37.7701887 C16.2727273,38.8768302 15.6770909,39.8954717 14.719,40.4251321 L7.42,44.4656604 C7.24213182,44.5640586 7.06993486,44.6701136 6.90371809,44.7832962" id="Path" stroke="#000000" stroke-linecap="round" stroke-linejoin="round"></path>
        <circle id="Oval" stroke="#000000" cx="28" cy="28" r="27"></circle>
    </g>
</svg>