<?xml version="1.0" encoding="UTF-8"?>
<svg width="56px" height="56px" viewBox="0 0 56 56" version="1.1" xmlns="http://www.w3.org/2000/svg" xmlns:xlink="http://www.w3.org/1999/xlink">
    <!-- Generator: Sketch 54.1 (76490) - https://sketchapp.com -->
    <title>user</title>
    <desc>Created with Sketch.</desc>
    <g id="user" stroke="none" stroke-width="1" fill="none" fill-rule="evenodd">
        <g id="Group-3" transform="translate(1.000000, 1.000000)" fill="#FFFFFF" fill-rule="nonzero">
            <path d="M27,54.5 C42.1878306,54.5 54.5,42.1878306 54.5,27 C54.5,11.8121694 42.1878306,-0.5 27,-0.5 C11.8121694,-0.5 -0.5,11.8121694 -0.5,27 C-0.5,42.1878306 11.8121694,54.5 27,54.5 Z M27,53.5 C12.3644541,53.5 0.5,41.6355459 0.5,27 C0.5,12.3644541 12.3644541,0.5 27,0.5 C41.6355459,0.5 53.5,12.3644541 53.5,27 C53.5,41.6355459 41.6355459,53.5 27,53.5 Z" id="Oval"></path>
        </g>
        <path d="M10.9194948,48.9117364 C11.510932,47.9008979 12.3658709,47.0488136 13.42,46.4656604 L20.719,42.4251321 C21.6770909,41.8954717 22.2727273,40.8768302 22.2727273,39.7701887 L22.2727273,36.7358491 C22.2727273,36.7358491 20.1307273,34.1365283 19.3133636,30.5235472 C18.6350909,30.078566 18.1818182,29.3089811 18.1818182,28.4339623 L18.1818182,25.1132075 C18.1818182,24.3826415 18.5017273,23.729283 19,23.2726792 L19,18.4716981 C19,18.4716981 18.028,11 28,11 C37.9711818,11 37,18.4716981 37,18.4716981 L37,23.2726792 C37.4982727,23.729283 37.8181818,24.3826415 37.8181818,25.1132075 L37.8181818,28.4339623 C37.8181818,29.550566 37.0801818,30.4903396 36.0779091,30.8033208 C35.5190909,32.5658113 34.714,34.245283 33.6487273,35.7711698 C33.3803636,36.1563774 33.1283636,36.4826415 32.9090909,36.7358491 L32.9090909,39.8473962 C32.9090909,40.9930566 33.5472727,42.0407547 34.5569091,42.5529811 L42.3721818,46.5179623 C43.4808408,47.0806336 44.3859986,47.9361042 45.0148866,48.9652264 C40.3712554,52.7385097 34.4497274,55 28,55 C21.519853,55 15.5728995,52.7171271 10.9194948,48.9117364 Z" id="Combined-Shape" fill="#FFFFFF"></path>
    </g>
</svg>