<?xml version="1.0" encoding="UTF-8"?>
<svg width="56px" height="56px" viewBox="0 0 56 56" version="1.1" xmlns="http://www.w3.org/2000/svg" xmlns:xlink="http://www.w3.org/1999/xlink">
    <!-- Generator: Sketch 54.1 (76490) - https://sketchapp.com -->
    <title>values</title>
    <desc>Created with Sketch.</desc>
    <g id="values" stroke="none" stroke-width="1" fill="none" fill-rule="evenodd">
        <ellipse id="Oval" stroke="#000000" cx="27.9375" cy="28" rx="14.0625" ry="27.1875"></ellipse>
        <ellipse id="Oval" stroke="#000000" transform="translate(27.937500, 28.000000) rotate(-315.000000) translate(-27.937500, -28.000000) " cx="27.9375" cy="28" rx="14.0625" ry="29"></ellipse>
        <ellipse id="Oval" stroke="#000000" transform="translate(27.937500, 28.000000) rotate(-240.000000) translate(-27.937500, -28.000000) " cx="27.9375" cy="28" rx="14.0625" ry="29"></ellipse>
        <path d="M28,24.8832708 C28.4969203,23.771768 29.5893705,23 30.8571429,23 C32.5928949,23 34,24.4467037 34,26.2313031 C34,27.8828349 32.2439724,30.6285151 28.7319171,34.4683437 L28.7318866,34.4683158 C28.3591589,34.8758293 27.7266485,34.9040289 27.3191349,34.5313013 C27.299094,34.5129711 27.2798082,34.4938321 27.2613255,34.4739318 C23.7537752,30.6973572 22,27.9498143 22,26.2313031 C22,24.4467037 23.4071051,23 25.1428571,23 C26.4106295,23 27.5030797,23.771768 28,24.8832708 Z" id="heart" fill="#000000"></path>
    </g>
</svg>