<?xml version="1.0" encoding="UTF-8"?>
<svg width="56px" height="56px" viewBox="0 0 56 56" version="1.1" xmlns="http://www.w3.org/2000/svg" xmlns:xlink="http://www.w3.org/1999/xlink">
    <!-- Generator: Sketch 54.1 (76490) - https://sketchapp.com -->
    <title>values</title>
    <desc>Created with Sketch.</desc>
    <g id="values" stroke="none" stroke-width="1" fill="none" fill-rule="evenodd">
        <path d="M27.9375,55.6875 C36.0695136,55.6875 42.5,43.2552263 42.5,28 C42.5,12.7447737 36.0695136,0.3125 27.9375,0.3125 C19.8054864,0.3125 13.375,12.7447737 13.375,28 C13.375,43.2552263 19.8054864,55.6875 27.9375,55.6875 Z M27.9375,54.6875 C20.536505,54.6875 14.375,42.7752569 14.375,28 C14.375,13.2247431 20.536505,1.3125 27.9375,1.3125 C35.338495,1.3125 41.5,13.2247431 41.5,28 C41.5,42.7752569 35.338495,54.6875 27.9375,54.6875 Z" id="Oval" fill="#FFFFFF" fill-rule="nonzero"></path>
        <path d="M27.9375,57.5 C36.0787173,57.5 42.5,44.2578882 42.5,28 C42.5,11.7421118 36.0787173,-1.5 27.9375,-1.5 C19.7962827,-1.5 13.375,11.7421118 13.375,28 C13.375,44.2578882 19.7962827,57.5 27.9375,57.5 Z M27.9375,56.5 C20.5457088,56.5 14.375,43.7746273 14.375,28 C14.375,12.2253727 20.5457088,-0.5 27.9375,-0.5 C35.3292912,-0.5 41.5,12.2253727 41.5,28 C41.5,43.7746273 35.3292912,56.5 27.9375,56.5 Z" id="Oval" fill="#FFFFFF" fill-rule="nonzero" transform="translate(27.937500, 28.000000) rotate(-315.000000) translate(-27.937500, -28.000000) "></path>
        <path d="M27.9375,57.5 C36.0787173,57.5 42.5,44.2578882 42.5,28 C42.5,11.7421118 36.0787173,-1.5 27.9375,-1.5 C19.7962827,-1.5 13.375,11.7421118 13.375,28 C13.375,44.2578882 19.7962827,57.5 27.9375,57.5 Z M27.9375,56.5 C20.5457088,56.5 14.375,43.7746273 14.375,28 C14.375,12.2253727 20.5457088,-0.5 27.9375,-0.5 C35.3292912,-0.5 41.5,12.2253727 41.5,28 C41.5,43.7746273 35.3292912,56.5 27.9375,56.5 Z" id="Oval" fill="#FFFFFF" fill-rule="nonzero" transform="translate(27.937500, 28.000000) rotate(-240.000000) translate(-27.937500, -28.000000) "></path>
        <path d="M28,24.8832708 C28.4969203,23.771768 29.5893705,23 30.8571429,23 C32.5928949,23 34,24.4467037 34,26.2313031 C34,27.8828349 32.2439724,30.6285151 28.7319171,34.4683437 L28.7318866,34.4683158 C28.3591589,34.8758293 27.7266485,34.9040289 27.3191349,34.5313013 C27.299094,34.5129711 27.2798082,34.4938321 27.2613255,34.4739318 C23.7537752,30.6973572 22,27.9498143 22,26.2313031 C22,24.4467037 23.4071051,23 25.1428571,23 C26.4106295,23 27.5030797,23.771768 28,24.8832708 Z" id="heart" fill="#FFFFFF"></path>
    </g>
</svg>